<?xml version="1.0" standalone="no"?>
<!DOCTYPE svg PUBLIC "-//W3C//DTD SVG 1.1//EN" "http://www.w3.org/Graphics/SVG/1.1/DTD/svg11.dtd">
<svg width="198" height="198" version="1.1" xmlns="http://www.w3.org/2000/svg">
	<desc>DKroj47MvQ5UVrQkbyPx4rFc8Np3pqGv2u</desc>
	<g id="elements" fill="black" stroke="none">
		<rect x="0" y="0" width="6" height="6" />
		<rect x="6" y="0" width="6" height="6" />
		<rect x="12" y="0" width="6" height="6" />
		<rect x="18" y="0" width="6" height="6" />
		<rect x="24" y="0" width="6" height="6" />
		<rect x="30" y="0" width="6" height="6" />
		<rect x="36" y="0" width="6" height="6" />
		<rect x="66" y="0" width="6" height="6" />
		<rect x="78" y="0" width="6" height="6" />
		<rect x="84" y="0" width="6" height="6" />
		<rect x="96" y="0" width="6" height="6" />
		<rect x="102" y="0" width="6" height="6" />
		<rect x="126" y="0" width="6" height="6" />
		<rect x="132" y="0" width="6" height="6" />
		<rect x="138" y="0" width="6" height="6" />
		<rect x="156" y="0" width="6" height="6" />
		<rect x="162" y="0" width="6" height="6" />
		<rect x="168" y="0" width="6" height="6" />
		<rect x="174" y="0" width="6" height="6" />
		<rect x="180" y="0" width="6" height="6" />
		<rect x="186" y="0" width="6" height="6" />
		<rect x="192" y="0" width="6" height="6" />
		<rect x="0" y="6" width="6" height="6" />
		<rect x="36" y="6" width="6" height="6" />
		<rect x="54" y="6" width="6" height="6" />
		<rect x="60" y="6" width="6" height="6" />
		<rect x="90" y="6" width="6" height="6" />
		<rect x="96" y="6" width="6" height="6" />
		<rect x="102" y="6" width="6" height="6" />
		<rect x="114" y="6" width="6" height="6" />
		<rect x="120" y="6" width="6" height="6" />
		<rect x="126" y="6" width="6" height="6" />
		<rect x="132" y="6" width="6" height="6" />
		<rect x="144" y="6" width="6" height="6" />
		<rect x="156" y="6" width="6" height="6" />
		<rect x="192" y="6" width="6" height="6" />
		<rect x="0" y="12" width="6" height="6" />
		<rect x="12" y="12" width="6" height="6" />
		<rect x="18" y="12" width="6" height="6" />
		<rect x="24" y="12" width="6" height="6" />
		<rect x="36" y="12" width="6" height="6" />
		<rect x="48" y="12" width="6" height="6" />
		<rect x="60" y="12" width="6" height="6" />
		<rect x="66" y="12" width="6" height="6" />
		<rect x="78" y="12" width="6" height="6" />
		<rect x="84" y="12" width="6" height="6" />
		<rect x="90" y="12" width="6" height="6" />
		<rect x="96" y="12" width="6" height="6" />
		<rect x="120" y="12" width="6" height="6" />
		<rect x="132" y="12" width="6" height="6" />
		<rect x="144" y="12" width="6" height="6" />
		<rect x="156" y="12" width="6" height="6" />
		<rect x="168" y="12" width="6" height="6" />
		<rect x="174" y="12" width="6" height="6" />
		<rect x="180" y="12" width="6" height="6" />
		<rect x="192" y="12" width="6" height="6" />
		<rect x="0" y="18" width="6" height="6" />
		<rect x="12" y="18" width="6" height="6" />
		<rect x="18" y="18" width="6" height="6" />
		<rect x="24" y="18" width="6" height="6" />
		<rect x="36" y="18" width="6" height="6" />
		<rect x="60" y="18" width="6" height="6" />
		<rect x="72" y="18" width="6" height="6" />
		<rect x="78" y="18" width="6" height="6" />
		<rect x="90" y="18" width="6" height="6" />
		<rect x="96" y="18" width="6" height="6" />
		<rect x="102" y="18" width="6" height="6" />
		<rect x="108" y="18" width="6" height="6" />
		<rect x="120" y="18" width="6" height="6" />
		<rect x="126" y="18" width="6" height="6" />
		<rect x="138" y="18" width="6" height="6" />
		<rect x="144" y="18" width="6" height="6" />
		<rect x="156" y="18" width="6" height="6" />
		<rect x="168" y="18" width="6" height="6" />
		<rect x="174" y="18" width="6" height="6" />
		<rect x="180" y="18" width="6" height="6" />
		<rect x="192" y="18" width="6" height="6" />
		<rect x="0" y="24" width="6" height="6" />
		<rect x="12" y="24" width="6" height="6" />
		<rect x="18" y="24" width="6" height="6" />
		<rect x="24" y="24" width="6" height="6" />
		<rect x="36" y="24" width="6" height="6" />
		<rect x="48" y="24" width="6" height="6" />
		<rect x="54" y="24" width="6" height="6" />
		<rect x="72" y="24" width="6" height="6" />
		<rect x="84" y="24" width="6" height="6" />
		<rect x="90" y="24" width="6" height="6" />
		<rect x="108" y="24" width="6" height="6" />
		<rect x="114" y="24" width="6" height="6" />
		<rect x="120" y="24" width="6" height="6" />
		<rect x="144" y="24" width="6" height="6" />
		<rect x="156" y="24" width="6" height="6" />
		<rect x="168" y="24" width="6" height="6" />
		<rect x="174" y="24" width="6" height="6" />
		<rect x="180" y="24" width="6" height="6" />
		<rect x="192" y="24" width="6" height="6" />
		<rect x="0" y="30" width="6" height="6" />
		<rect x="36" y="30" width="6" height="6" />
		<rect x="48" y="30" width="6" height="6" />
		<rect x="54" y="30" width="6" height="6" />
		<rect x="60" y="30" width="6" height="6" />
		<rect x="72" y="30" width="6" height="6" />
		<rect x="78" y="30" width="6" height="6" />
		<rect x="96" y="30" width="6" height="6" />
		<rect x="102" y="30" width="6" height="6" />
		<rect x="108" y="30" width="6" height="6" />
		<rect x="114" y="30" width="6" height="6" />
		<rect x="126" y="30" width="6" height="6" />
		<rect x="156" y="30" width="6" height="6" />
		<rect x="192" y="30" width="6" height="6" />
		<rect x="0" y="36" width="6" height="6" />
		<rect x="6" y="36" width="6" height="6" />
		<rect x="12" y="36" width="6" height="6" />
		<rect x="18" y="36" width="6" height="6" />
		<rect x="24" y="36" width="6" height="6" />
		<rect x="30" y="36" width="6" height="6" />
		<rect x="36" y="36" width="6" height="6" />
		<rect x="48" y="36" width="6" height="6" />
		<rect x="60" y="36" width="6" height="6" />
		<rect x="72" y="36" width="6" height="6" />
		<rect x="84" y="36" width="6" height="6" />
		<rect x="96" y="36" width="6" height="6" />
		<rect x="108" y="36" width="6" height="6" />
		<rect x="120" y="36" width="6" height="6" />
		<rect x="132" y="36" width="6" height="6" />
		<rect x="144" y="36" width="6" height="6" />
		<rect x="156" y="36" width="6" height="6" />
		<rect x="162" y="36" width="6" height="6" />
		<rect x="168" y="36" width="6" height="6" />
		<rect x="174" y="36" width="6" height="6" />
		<rect x="180" y="36" width="6" height="6" />
		<rect x="186" y="36" width="6" height="6" />
		<rect x="192" y="36" width="6" height="6" />
		<rect x="66" y="42" width="6" height="6" />
		<rect x="84" y="42" width="6" height="6" />
		<rect x="102" y="42" width="6" height="6" />
		<rect x="126" y="42" width="6" height="6" />
		<rect x="132" y="42" width="6" height="6" />
		<rect x="138" y="42" width="6" height="6" />
		<rect x="6" y="48" width="6" height="6" />
		<rect x="24" y="48" width="6" height="6" />
		<rect x="36" y="48" width="6" height="6" />
		<rect x="48" y="48" width="6" height="6" />
		<rect x="66" y="48" width="6" height="6" />
		<rect x="72" y="48" width="6" height="6" />
		<rect x="78" y="48" width="6" height="6" />
		<rect x="90" y="48" width="6" height="6" />
		<rect x="96" y="48" width="6" height="6" />
		<rect x="114" y="48" width="6" height="6" />
		<rect x="132" y="48" width="6" height="6" />
		<rect x="150" y="48" width="6" height="6" />
		<rect x="162" y="48" width="6" height="6" />
		<rect x="168" y="48" width="6" height="6" />
		<rect x="180" y="48" width="6" height="6" />
		<rect x="48" y="54" width="6" height="6" />
		<rect x="54" y="54" width="6" height="6" />
		<rect x="90" y="54" width="6" height="6" />
		<rect x="96" y="54" width="6" height="6" />
		<rect x="108" y="54" width="6" height="6" />
		<rect x="120" y="54" width="6" height="6" />
		<rect x="132" y="54" width="6" height="6" />
		<rect x="150" y="54" width="6" height="6" />
		<rect x="156" y="54" width="6" height="6" />
		<rect x="162" y="54" width="6" height="6" />
		<rect x="186" y="54" width="6" height="6" />
		<rect x="192" y="54" width="6" height="6" />
		<rect x="12" y="60" width="6" height="6" />
		<rect x="18" y="60" width="6" height="6" />
		<rect x="30" y="60" width="6" height="6" />
		<rect x="36" y="60" width="6" height="6" />
		<rect x="42" y="60" width="6" height="6" />
		<rect x="48" y="60" width="6" height="6" />
		<rect x="54" y="60" width="6" height="6" />
		<rect x="90" y="60" width="6" height="6" />
		<rect x="96" y="60" width="6" height="6" />
		<rect x="102" y="60" width="6" height="6" />
		<rect x="126" y="60" width="6" height="6" />
		<rect x="132" y="60" width="6" height="6" />
		<rect x="138" y="60" width="6" height="6" />
		<rect x="144" y="60" width="6" height="6" />
		<rect x="150" y="60" width="6" height="6" />
		<rect x="180" y="60" width="6" height="6" />
		<rect x="186" y="60" width="6" height="6" />
		<rect x="0" y="66" width="6" height="6" />
		<rect x="6" y="66" width="6" height="6" />
		<rect x="18" y="66" width="6" height="6" />
		<rect x="30" y="66" width="6" height="6" />
		<rect x="48" y="66" width="6" height="6" />
		<rect x="72" y="66" width="6" height="6" />
		<rect x="90" y="66" width="6" height="6" />
		<rect x="96" y="66" width="6" height="6" />
		<rect x="102" y="66" width="6" height="6" />
		<rect x="108" y="66" width="6" height="6" />
		<rect x="126" y="66" width="6" height="6" />
		<rect x="138" y="66" width="6" height="6" />
		<rect x="144" y="66" width="6" height="6" />
		<rect x="150" y="66" width="6" height="6" />
		<rect x="156" y="66" width="6" height="6" />
		<rect x="168" y="66" width="6" height="6" />
		<rect x="6" y="72" width="6" height="6" />
		<rect x="24" y="72" width="6" height="6" />
		<rect x="30" y="72" width="6" height="6" />
		<rect x="36" y="72" width="6" height="6" />
		<rect x="42" y="72" width="6" height="6" />
		<rect x="54" y="72" width="6" height="6" />
		<rect x="78" y="72" width="6" height="6" />
		<rect x="108" y="72" width="6" height="6" />
		<rect x="120" y="72" width="6" height="6" />
		<rect x="144" y="72" width="6" height="6" />
		<rect x="156" y="72" width="6" height="6" />
		<rect x="174" y="72" width="6" height="6" />
		<rect x="186" y="72" width="6" height="6" />
		<rect x="18" y="78" width="6" height="6" />
		<rect x="30" y="78" width="6" height="6" />
		<rect x="42" y="78" width="6" height="6" />
		<rect x="60" y="78" width="6" height="6" />
		<rect x="72" y="78" width="6" height="6" />
		<rect x="78" y="78" width="6" height="6" />
		<rect x="84" y="78" width="6" height="6" />
		<rect x="90" y="78" width="6" height="6" />
		<rect x="96" y="78" width="6" height="6" />
		<rect x="102" y="78" width="6" height="6" />
		<rect x="114" y="78" width="6" height="6" />
		<rect x="132" y="78" width="6" height="6" />
		<rect x="162" y="78" width="6" height="6" />
		<rect x="174" y="78" width="6" height="6" />
		<rect x="186" y="78" width="6" height="6" />
		<rect x="192" y="78" width="6" height="6" />
		<rect x="6" y="84" width="6" height="6" />
		<rect x="12" y="84" width="6" height="6" />
		<rect x="30" y="84" width="6" height="6" />
		<rect x="36" y="84" width="6" height="6" />
		<rect x="48" y="84" width="6" height="6" />
		<rect x="54" y="84" width="6" height="6" />
		<rect x="60" y="84" width="6" height="6" />
		<rect x="66" y="84" width="6" height="6" />
		<rect x="84" y="84" width="6" height="6" />
		<rect x="90" y="84" width="6" height="6" />
		<rect x="102" y="84" width="6" height="6" />
		<rect x="114" y="84" width="6" height="6" />
		<rect x="126" y="84" width="6" height="6" />
		<rect x="132" y="84" width="6" height="6" />
		<rect x="150" y="84" width="6" height="6" />
		<rect x="156" y="84" width="6" height="6" />
		<rect x="168" y="84" width="6" height="6" />
		<rect x="174" y="84" width="6" height="6" />
		<rect x="180" y="84" width="6" height="6" />
		<rect x="186" y="84" width="6" height="6" />
		<rect x="0" y="90" width="6" height="6" />
		<rect x="60" y="90" width="6" height="6" />
		<rect x="66" y="90" width="6" height="6" />
		<rect x="72" y="90" width="6" height="6" />
		<rect x="78" y="90" width="6" height="6" />
		<rect x="84" y="90" width="6" height="6" />
		<rect x="96" y="90" width="6" height="6" />
		<rect x="114" y="90" width="6" height="6" />
		<rect x="120" y="90" width="6" height="6" />
		<rect x="126" y="90" width="6" height="6" />
		<rect x="144" y="90" width="6" height="6" />
		<rect x="150" y="90" width="6" height="6" />
		<rect x="162" y="90" width="6" height="6" />
		<rect x="168" y="90" width="6" height="6" />
		<rect x="0" y="96" width="6" height="6" />
		<rect x="18" y="96" width="6" height="6" />
		<rect x="24" y="96" width="6" height="6" />
		<rect x="36" y="96" width="6" height="6" />
		<rect x="42" y="96" width="6" height="6" />
		<rect x="66" y="96" width="6" height="6" />
		<rect x="72" y="96" width="6" height="6" />
		<rect x="78" y="96" width="6" height="6" />
		<rect x="84" y="96" width="6" height="6" />
		<rect x="96" y="96" width="6" height="6" />
		<rect x="102" y="96" width="6" height="6" />
		<rect x="126" y="96" width="6" height="6" />
		<rect x="132" y="96" width="6" height="6" />
		<rect x="138" y="96" width="6" height="6" />
		<rect x="156" y="96" width="6" height="6" />
		<rect x="162" y="96" width="6" height="6" />
		<rect x="168" y="96" width="6" height="6" />
		<rect x="174" y="96" width="6" height="6" />
		<rect x="192" y="96" width="6" height="6" />
		<rect x="18" y="102" width="6" height="6" />
		<rect x="66" y="102" width="6" height="6" />
		<rect x="84" y="102" width="6" height="6" />
		<rect x="108" y="102" width="6" height="6" />
		<rect x="126" y="102" width="6" height="6" />
		<rect x="180" y="102" width="6" height="6" />
		<rect x="6" y="108" width="6" height="6" />
		<rect x="24" y="108" width="6" height="6" />
		<rect x="30" y="108" width="6" height="6" />
		<rect x="36" y="108" width="6" height="6" />
		<rect x="54" y="108" width="6" height="6" />
		<rect x="60" y="108" width="6" height="6" />
		<rect x="72" y="108" width="6" height="6" />
		<rect x="90" y="108" width="6" height="6" />
		<rect x="96" y="108" width="6" height="6" />
		<rect x="102" y="108" width="6" height="6" />
		<rect x="138" y="108" width="6" height="6" />
		<rect x="144" y="108" width="6" height="6" />
		<rect x="150" y="108" width="6" height="6" />
		<rect x="162" y="108" width="6" height="6" />
		<rect x="168" y="108" width="6" height="6" />
		<rect x="174" y="108" width="6" height="6" />
		<rect x="180" y="108" width="6" height="6" />
		<rect x="0" y="114" width="6" height="6" />
		<rect x="6" y="114" width="6" height="6" />
		<rect x="12" y="114" width="6" height="6" />
		<rect x="54" y="114" width="6" height="6" />
		<rect x="72" y="114" width="6" height="6" />
		<rect x="78" y="114" width="6" height="6" />
		<rect x="108" y="114" width="6" height="6" />
		<rect x="132" y="114" width="6" height="6" />
		<rect x="138" y="114" width="6" height="6" />
		<rect x="144" y="114" width="6" height="6" />
		<rect x="156" y="114" width="6" height="6" />
		<rect x="168" y="114" width="6" height="6" />
		<rect x="186" y="114" width="6" height="6" />
		<rect x="192" y="114" width="6" height="6" />
		<rect x="24" y="120" width="6" height="6" />
		<rect x="36" y="120" width="6" height="6" />
		<rect x="48" y="120" width="6" height="6" />
		<rect x="54" y="120" width="6" height="6" />
		<rect x="60" y="120" width="6" height="6" />
		<rect x="66" y="120" width="6" height="6" />
		<rect x="78" y="120" width="6" height="6" />
		<rect x="90" y="120" width="6" height="6" />
		<rect x="102" y="120" width="6" height="6" />
		<rect x="108" y="120" width="6" height="6" />
		<rect x="114" y="120" width="6" height="6" />
		<rect x="132" y="120" width="6" height="6" />
		<rect x="144" y="120" width="6" height="6" />
		<rect x="150" y="120" width="6" height="6" />
		<rect x="156" y="120" width="6" height="6" />
		<rect x="162" y="120" width="6" height="6" />
		<rect x="168" y="120" width="6" height="6" />
		<rect x="186" y="120" width="6" height="6" />
		<rect x="192" y="120" width="6" height="6" />
		<rect x="0" y="126" width="6" height="6" />
		<rect x="6" y="126" width="6" height="6" />
		<rect x="12" y="126" width="6" height="6" />
		<rect x="18" y="126" width="6" height="6" />
		<rect x="42" y="126" width="6" height="6" />
		<rect x="54" y="126" width="6" height="6" />
		<rect x="66" y="126" width="6" height="6" />
		<rect x="90" y="126" width="6" height="6" />
		<rect x="96" y="126" width="6" height="6" />
		<rect x="102" y="126" width="6" height="6" />
		<rect x="108" y="126" width="6" height="6" />
		<rect x="114" y="126" width="6" height="6" />
		<rect x="120" y="126" width="6" height="6" />
		<rect x="126" y="126" width="6" height="6" />
		<rect x="144" y="126" width="6" height="6" />
		<rect x="162" y="126" width="6" height="6" />
		<rect x="180" y="126" width="6" height="6" />
		<rect x="186" y="126" width="6" height="6" />
		<rect x="192" y="126" width="6" height="6" />
		<rect x="18" y="132" width="6" height="6" />
		<rect x="24" y="132" width="6" height="6" />
		<rect x="36" y="132" width="6" height="6" />
		<rect x="42" y="132" width="6" height="6" />
		<rect x="72" y="132" width="6" height="6" />
		<rect x="78" y="132" width="6" height="6" />
		<rect x="108" y="132" width="6" height="6" />
		<rect x="120" y="132" width="6" height="6" />
		<rect x="132" y="132" width="6" height="6" />
		<rect x="138" y="132" width="6" height="6" />
		<rect x="144" y="132" width="6" height="6" />
		<rect x="150" y="132" width="6" height="6" />
		<rect x="162" y="132" width="6" height="6" />
		<rect x="168" y="132" width="6" height="6" />
		<rect x="174" y="132" width="6" height="6" />
		<rect x="186" y="132" width="6" height="6" />
		<rect x="12" y="138" width="6" height="6" />
		<rect x="30" y="138" width="6" height="6" />
		<rect x="48" y="138" width="6" height="6" />
		<rect x="66" y="138" width="6" height="6" />
		<rect x="84" y="138" width="6" height="6" />
		<rect x="96" y="138" width="6" height="6" />
		<rect x="102" y="138" width="6" height="6" />
		<rect x="126" y="138" width="6" height="6" />
		<rect x="138" y="138" width="6" height="6" />
		<rect x="144" y="138" width="6" height="6" />
		<rect x="156" y="138" width="6" height="6" />
		<rect x="162" y="138" width="6" height="6" />
		<rect x="168" y="138" width="6" height="6" />
		<rect x="174" y="138" width="6" height="6" />
		<rect x="192" y="138" width="6" height="6" />
		<rect x="0" y="144" width="6" height="6" />
		<rect x="6" y="144" width="6" height="6" />
		<rect x="12" y="144" width="6" height="6" />
		<rect x="18" y="144" width="6" height="6" />
		<rect x="30" y="144" width="6" height="6" />
		<rect x="36" y="144" width="6" height="6" />
		<rect x="48" y="144" width="6" height="6" />
		<rect x="54" y="144" width="6" height="6" />
		<rect x="60" y="144" width="6" height="6" />
		<rect x="66" y="144" width="6" height="6" />
		<rect x="78" y="144" width="6" height="6" />
		<rect x="90" y="144" width="6" height="6" />
		<rect x="96" y="144" width="6" height="6" />
		<rect x="102" y="144" width="6" height="6" />
		<rect x="108" y="144" width="6" height="6" />
		<rect x="114" y="144" width="6" height="6" />
		<rect x="126" y="144" width="6" height="6" />
		<rect x="132" y="144" width="6" height="6" />
		<rect x="144" y="144" width="6" height="6" />
		<rect x="150" y="144" width="6" height="6" />
		<rect x="156" y="144" width="6" height="6" />
		<rect x="162" y="144" width="6" height="6" />
		<rect x="168" y="144" width="6" height="6" />
		<rect x="174" y="144" width="6" height="6" />
		<rect x="186" y="144" width="6" height="6" />
		<rect x="192" y="144" width="6" height="6" />
		<rect x="48" y="150" width="6" height="6" />
		<rect x="60" y="150" width="6" height="6" />
		<rect x="66" y="150" width="6" height="6" />
		<rect x="72" y="150" width="6" height="6" />
		<rect x="78" y="150" width="6" height="6" />
		<rect x="96" y="150" width="6" height="6" />
		<rect x="102" y="150" width="6" height="6" />
		<rect x="108" y="150" width="6" height="6" />
		<rect x="114" y="150" width="6" height="6" />
		<rect x="138" y="150" width="6" height="6" />
		<rect x="144" y="150" width="6" height="6" />
		<rect x="168" y="150" width="6" height="6" />
		<rect x="174" y="150" width="6" height="6" />
		<rect x="186" y="150" width="6" height="6" />
		<rect x="0" y="156" width="6" height="6" />
		<rect x="6" y="156" width="6" height="6" />
		<rect x="12" y="156" width="6" height="6" />
		<rect x="18" y="156" width="6" height="6" />
		<rect x="24" y="156" width="6" height="6" />
		<rect x="30" y="156" width="6" height="6" />
		<rect x="36" y="156" width="6" height="6" />
		<rect x="54" y="156" width="6" height="6" />
		<rect x="60" y="156" width="6" height="6" />
		<rect x="78" y="156" width="6" height="6" />
		<rect x="84" y="156" width="6" height="6" />
		<rect x="96" y="156" width="6" height="6" />
		<rect x="108" y="156" width="6" height="6" />
		<rect x="120" y="156" width="6" height="6" />
		<rect x="126" y="156" width="6" height="6" />
		<rect x="132" y="156" width="6" height="6" />
		<rect x="144" y="156" width="6" height="6" />
		<rect x="156" y="156" width="6" height="6" />
		<rect x="168" y="156" width="6" height="6" />
		<rect x="180" y="156" width="6" height="6" />
		<rect x="186" y="156" width="6" height="6" />
		<rect x="0" y="162" width="6" height="6" />
		<rect x="36" y="162" width="6" height="6" />
		<rect x="72" y="162" width="6" height="6" />
		<rect x="78" y="162" width="6" height="6" />
		<rect x="108" y="162" width="6" height="6" />
		<rect x="126" y="162" width="6" height="6" />
		<rect x="138" y="162" width="6" height="6" />
		<rect x="144" y="162" width="6" height="6" />
		<rect x="168" y="162" width="6" height="6" />
		<rect x="192" y="162" width="6" height="6" />
		<rect x="0" y="168" width="6" height="6" />
		<rect x="12" y="168" width="6" height="6" />
		<rect x="18" y="168" width="6" height="6" />
		<rect x="24" y="168" width="6" height="6" />
		<rect x="36" y="168" width="6" height="6" />
		<rect x="48" y="168" width="6" height="6" />
		<rect x="66" y="168" width="6" height="6" />
		<rect x="72" y="168" width="6" height="6" />
		<rect x="78" y="168" width="6" height="6" />
		<rect x="84" y="168" width="6" height="6" />
		<rect x="108" y="168" width="6" height="6" />
		<rect x="120" y="168" width="6" height="6" />
		<rect x="144" y="168" width="6" height="6" />
		<rect x="150" y="168" width="6" height="6" />
		<rect x="156" y="168" width="6" height="6" />
		<rect x="162" y="168" width="6" height="6" />
		<rect x="168" y="168" width="6" height="6" />
		<rect x="192" y="168" width="6" height="6" />
		<rect x="0" y="174" width="6" height="6" />
		<rect x="12" y="174" width="6" height="6" />
		<rect x="18" y="174" width="6" height="6" />
		<rect x="24" y="174" width="6" height="6" />
		<rect x="36" y="174" width="6" height="6" />
		<rect x="66" y="174" width="6" height="6" />
		<rect x="72" y="174" width="6" height="6" />
		<rect x="78" y="174" width="6" height="6" />
		<rect x="84" y="174" width="6" height="6" />
		<rect x="102" y="174" width="6" height="6" />
		<rect x="108" y="174" width="6" height="6" />
		<rect x="114" y="174" width="6" height="6" />
		<rect x="132" y="174" width="6" height="6" />
		<rect x="138" y="174" width="6" height="6" />
		<rect x="144" y="174" width="6" height="6" />
		<rect x="156" y="174" width="6" height="6" />
		<rect x="162" y="174" width="6" height="6" />
		<rect x="168" y="174" width="6" height="6" />
		<rect x="180" y="174" width="6" height="6" />
		<rect x="186" y="174" width="6" height="6" />
		<rect x="0" y="180" width="6" height="6" />
		<rect x="12" y="180" width="6" height="6" />
		<rect x="18" y="180" width="6" height="6" />
		<rect x="24" y="180" width="6" height="6" />
		<rect x="36" y="180" width="6" height="6" />
		<rect x="54" y="180" width="6" height="6" />
		<rect x="66" y="180" width="6" height="6" />
		<rect x="72" y="180" width="6" height="6" />
		<rect x="78" y="180" width="6" height="6" />
		<rect x="84" y="180" width="6" height="6" />
		<rect x="90" y="180" width="6" height="6" />
		<rect x="102" y="180" width="6" height="6" />
		<rect x="108" y="180" width="6" height="6" />
		<rect x="114" y="180" width="6" height="6" />
		<rect x="132" y="180" width="6" height="6" />
		<rect x="138" y="180" width="6" height="6" />
		<rect x="150" y="180" width="6" height="6" />
		<rect x="162" y="180" width="6" height="6" />
		<rect x="168" y="180" width="6" height="6" />
		<rect x="180" y="180" width="6" height="6" />
		<rect x="0" y="186" width="6" height="6" />
		<rect x="36" y="186" width="6" height="6" />
		<rect x="48" y="186" width="6" height="6" />
		<rect x="54" y="186" width="6" height="6" />
		<rect x="96" y="186" width="6" height="6" />
		<rect x="114" y="186" width="6" height="6" />
		<rect x="120" y="186" width="6" height="6" />
		<rect x="126" y="186" width="6" height="6" />
		<rect x="132" y="186" width="6" height="6" />
		<rect x="144" y="186" width="6" height="6" />
		<rect x="162" y="186" width="6" height="6" />
		<rect x="0" y="192" width="6" height="6" />
		<rect x="6" y="192" width="6" height="6" />
		<rect x="12" y="192" width="6" height="6" />
		<rect x="18" y="192" width="6" height="6" />
		<rect x="24" y="192" width="6" height="6" />
		<rect x="30" y="192" width="6" height="6" />
		<rect x="36" y="192" width="6" height="6" />
		<rect x="54" y="192" width="6" height="6" />
		<rect x="60" y="192" width="6" height="6" />
		<rect x="66" y="192" width="6" height="6" />
		<rect x="84" y="192" width="6" height="6" />
		<rect x="102" y="192" width="6" height="6" />
		<rect x="108" y="192" width="6" height="6" />
		<rect x="126" y="192" width="6" height="6" />
		<rect x="132" y="192" width="6" height="6" />
		<rect x="138" y="192" width="6" height="6" />
		<rect x="144" y="192" width="6" height="6" />
		<rect x="150" y="192" width="6" height="6" />
		<rect x="168" y="192" width="6" height="6" />
		<rect x="174" y="192" width="6" height="6" />
		<rect x="192" y="192" width="6" height="6" />
	</g>
</svg>
