<?xml version="1.0" standalone="no"?>
<!DOCTYPE svg PUBLIC "-//W3C//DTD SVG 1.1//EN" "http://www.w3.org/Graphics/SVG/1.1/DTD/svg11.dtd">
<svg width="198" height="198" version="1.1" xmlns="http://www.w3.org/2000/svg">
	<desc>0x4F08E40927A2Dbf88843760B5008D7A4aE7B5a80</desc>
	<g id="elements" fill="black" stroke="none">
		<rect x="0" y="0" width="6" height="6" />
		<rect x="6" y="0" width="6" height="6" />
		<rect x="12" y="0" width="6" height="6" />
		<rect x="18" y="0" width="6" height="6" />
		<rect x="24" y="0" width="6" height="6" />
		<rect x="30" y="0" width="6" height="6" />
		<rect x="36" y="0" width="6" height="6" />
		<rect x="54" y="0" width="6" height="6" />
		<rect x="72" y="0" width="6" height="6" />
		<rect x="108" y="0" width="6" height="6" />
		<rect x="114" y="0" width="6" height="6" />
		<rect x="120" y="0" width="6" height="6" />
		<rect x="126" y="0" width="6" height="6" />
		<rect x="144" y="0" width="6" height="6" />
		<rect x="156" y="0" width="6" height="6" />
		<rect x="162" y="0" width="6" height="6" />
		<rect x="168" y="0" width="6" height="6" />
		<rect x="174" y="0" width="6" height="6" />
		<rect x="180" y="0" width="6" height="6" />
		<rect x="186" y="0" width="6" height="6" />
		<rect x="192" y="0" width="6" height="6" />
		<rect x="0" y="6" width="6" height="6" />
		<rect x="36" y="6" width="6" height="6" />
		<rect x="48" y="6" width="6" height="6" />
		<rect x="54" y="6" width="6" height="6" />
		<rect x="72" y="6" width="6" height="6" />
		<rect x="96" y="6" width="6" height="6" />
		<rect x="102" y="6" width="6" height="6" />
		<rect x="120" y="6" width="6" height="6" />
		<rect x="126" y="6" width="6" height="6" />
		<rect x="156" y="6" width="6" height="6" />
		<rect x="192" y="6" width="6" height="6" />
		<rect x="0" y="12" width="6" height="6" />
		<rect x="12" y="12" width="6" height="6" />
		<rect x="18" y="12" width="6" height="6" />
		<rect x="24" y="12" width="6" height="6" />
		<rect x="36" y="12" width="6" height="6" />
		<rect x="48" y="12" width="6" height="6" />
		<rect x="66" y="12" width="6" height="6" />
		<rect x="84" y="12" width="6" height="6" />
		<rect x="96" y="12" width="6" height="6" />
		<rect x="108" y="12" width="6" height="6" />
		<rect x="114" y="12" width="6" height="6" />
		<rect x="138" y="12" width="6" height="6" />
		<rect x="156" y="12" width="6" height="6" />
		<rect x="168" y="12" width="6" height="6" />
		<rect x="174" y="12" width="6" height="6" />
		<rect x="180" y="12" width="6" height="6" />
		<rect x="192" y="12" width="6" height="6" />
		<rect x="0" y="18" width="6" height="6" />
		<rect x="12" y="18" width="6" height="6" />
		<rect x="18" y="18" width="6" height="6" />
		<rect x="24" y="18" width="6" height="6" />
		<rect x="36" y="18" width="6" height="6" />
		<rect x="60" y="18" width="6" height="6" />
		<rect x="90" y="18" width="6" height="6" />
		<rect x="108" y="18" width="6" height="6" />
		<rect x="114" y="18" width="6" height="6" />
		<rect x="126" y="18" width="6" height="6" />
		<rect x="132" y="18" width="6" height="6" />
		<rect x="144" y="18" width="6" height="6" />
		<rect x="156" y="18" width="6" height="6" />
		<rect x="168" y="18" width="6" height="6" />
		<rect x="174" y="18" width="6" height="6" />
		<rect x="180" y="18" width="6" height="6" />
		<rect x="192" y="18" width="6" height="6" />
		<rect x="0" y="24" width="6" height="6" />
		<rect x="12" y="24" width="6" height="6" />
		<rect x="18" y="24" width="6" height="6" />
		<rect x="24" y="24" width="6" height="6" />
		<rect x="36" y="24" width="6" height="6" />
		<rect x="60" y="24" width="6" height="6" />
		<rect x="66" y="24" width="6" height="6" />
		<rect x="96" y="24" width="6" height="6" />
		<rect x="108" y="24" width="6" height="6" />
		<rect x="132" y="24" width="6" height="6" />
		<rect x="156" y="24" width="6" height="6" />
		<rect x="168" y="24" width="6" height="6" />
		<rect x="174" y="24" width="6" height="6" />
		<rect x="180" y="24" width="6" height="6" />
		<rect x="192" y="24" width="6" height="6" />
		<rect x="0" y="30" width="6" height="6" />
		<rect x="36" y="30" width="6" height="6" />
		<rect x="54" y="30" width="6" height="6" />
		<rect x="60" y="30" width="6" height="6" />
		<rect x="66" y="30" width="6" height="6" />
		<rect x="84" y="30" width="6" height="6" />
		<rect x="108" y="30" width="6" height="6" />
		<rect x="126" y="30" width="6" height="6" />
		<rect x="156" y="30" width="6" height="6" />
		<rect x="192" y="30" width="6" height="6" />
		<rect x="0" y="36" width="6" height="6" />
		<rect x="6" y="36" width="6" height="6" />
		<rect x="12" y="36" width="6" height="6" />
		<rect x="18" y="36" width="6" height="6" />
		<rect x="24" y="36" width="6" height="6" />
		<rect x="30" y="36" width="6" height="6" />
		<rect x="36" y="36" width="6" height="6" />
		<rect x="48" y="36" width="6" height="6" />
		<rect x="60" y="36" width="6" height="6" />
		<rect x="72" y="36" width="6" height="6" />
		<rect x="84" y="36" width="6" height="6" />
		<rect x="96" y="36" width="6" height="6" />
		<rect x="108" y="36" width="6" height="6" />
		<rect x="120" y="36" width="6" height="6" />
		<rect x="132" y="36" width="6" height="6" />
		<rect x="144" y="36" width="6" height="6" />
		<rect x="156" y="36" width="6" height="6" />
		<rect x="162" y="36" width="6" height="6" />
		<rect x="168" y="36" width="6" height="6" />
		<rect x="174" y="36" width="6" height="6" />
		<rect x="180" y="36" width="6" height="6" />
		<rect x="186" y="36" width="6" height="6" />
		<rect x="192" y="36" width="6" height="6" />
		<rect x="60" y="42" width="6" height="6" />
		<rect x="66" y="42" width="6" height="6" />
		<rect x="78" y="42" width="6" height="6" />
		<rect x="102" y="42" width="6" height="6" />
		<rect x="108" y="42" width="6" height="6" />
		<rect x="114" y="42" width="6" height="6" />
		<rect x="138" y="42" width="6" height="6" />
		<rect x="144" y="42" width="6" height="6" />
		<rect x="6" y="48" width="6" height="6" />
		<rect x="12" y="48" width="6" height="6" />
		<rect x="18" y="48" width="6" height="6" />
		<rect x="30" y="48" width="6" height="6" />
		<rect x="36" y="48" width="6" height="6" />
		<rect x="54" y="48" width="6" height="6" />
		<rect x="66" y="48" width="6" height="6" />
		<rect x="72" y="48" width="6" height="6" />
		<rect x="84" y="48" width="6" height="6" />
		<rect x="90" y="48" width="6" height="6" />
		<rect x="108" y="48" width="6" height="6" />
		<rect x="120" y="48" width="6" height="6" />
		<rect x="126" y="48" width="6" height="6" />
		<rect x="180" y="48" width="6" height="6" />
		<rect x="186" y="48" width="6" height="6" />
		<rect x="0" y="54" width="6" height="6" />
		<rect x="18" y="54" width="6" height="6" />
		<rect x="24" y="54" width="6" height="6" />
		<rect x="30" y="54" width="6" height="6" />
		<rect x="54" y="54" width="6" height="6" />
		<rect x="66" y="54" width="6" height="6" />
		<rect x="72" y="54" width="6" height="6" />
		<rect x="78" y="54" width="6" height="6" />
		<rect x="84" y="54" width="6" height="6" />
		<rect x="102" y="54" width="6" height="6" />
		<rect x="114" y="54" width="6" height="6" />
		<rect x="120" y="54" width="6" height="6" />
		<rect x="126" y="54" width="6" height="6" />
		<rect x="132" y="54" width="6" height="6" />
		<rect x="138" y="54" width="6" height="6" />
		<rect x="144" y="54" width="6" height="6" />
		<rect x="168" y="54" width="6" height="6" />
		<rect x="186" y="54" width="6" height="6" />
		<rect x="192" y="54" width="6" height="6" />
		<rect x="0" y="60" width="6" height="6" />
		<rect x="18" y="60" width="6" height="6" />
		<rect x="24" y="60" width="6" height="6" />
		<rect x="36" y="60" width="6" height="6" />
		<rect x="42" y="60" width="6" height="6" />
		<rect x="60" y="60" width="6" height="6" />
		<rect x="66" y="60" width="6" height="6" />
		<rect x="78" y="60" width="6" height="6" />
		<rect x="96" y="60" width="6" height="6" />
		<rect x="108" y="60" width="6" height="6" />
		<rect x="126" y="60" width="6" height="6" />
		<rect x="132" y="60" width="6" height="6" />
		<rect x="150" y="60" width="6" height="6" />
		<rect x="156" y="60" width="6" height="6" />
		<rect x="168" y="60" width="6" height="6" />
		<rect x="174" y="60" width="6" height="6" />
		<rect x="186" y="60" width="6" height="6" />
		<rect x="6" y="66" width="6" height="6" />
		<rect x="30" y="66" width="6" height="6" />
		<rect x="42" y="66" width="6" height="6" />
		<rect x="48" y="66" width="6" height="6" />
		<rect x="60" y="66" width="6" height="6" />
		<rect x="66" y="66" width="6" height="6" />
		<rect x="72" y="66" width="6" height="6" />
		<rect x="90" y="66" width="6" height="6" />
		<rect x="102" y="66" width="6" height="6" />
		<rect x="132" y="66" width="6" height="6" />
		<rect x="144" y="66" width="6" height="6" />
		<rect x="150" y="66" width="6" height="6" />
		<rect x="162" y="66" width="6" height="6" />
		<rect x="186" y="66" width="6" height="6" />
		<rect x="0" y="72" width="6" height="6" />
		<rect x="18" y="72" width="6" height="6" />
		<rect x="24" y="72" width="6" height="6" />
		<rect x="36" y="72" width="6" height="6" />
		<rect x="42" y="72" width="6" height="6" />
		<rect x="78" y="72" width="6" height="6" />
		<rect x="84" y="72" width="6" height="6" />
		<rect x="120" y="72" width="6" height="6" />
		<rect x="126" y="72" width="6" height="6" />
		<rect x="138" y="72" width="6" height="6" />
		<rect x="150" y="72" width="6" height="6" />
		<rect x="162" y="72" width="6" height="6" />
		<rect x="174" y="72" width="6" height="6" />
		<rect x="186" y="72" width="6" height="6" />
		<rect x="6" y="78" width="6" height="6" />
		<rect x="12" y="78" width="6" height="6" />
		<rect x="18" y="78" width="6" height="6" />
		<rect x="24" y="78" width="6" height="6" />
		<rect x="30" y="78" width="6" height="6" />
		<rect x="48" y="78" width="6" height="6" />
		<rect x="60" y="78" width="6" height="6" />
		<rect x="78" y="78" width="6" height="6" />
		<rect x="96" y="78" width="6" height="6" />
		<rect x="102" y="78" width="6" height="6" />
		<rect x="120" y="78" width="6" height="6" />
		<rect x="132" y="78" width="6" height="6" />
		<rect x="144" y="78" width="6" height="6" />
		<rect x="156" y="78" width="6" height="6" />
		<rect x="162" y="78" width="6" height="6" />
		<rect x="174" y="78" width="6" height="6" />
		<rect x="180" y="78" width="6" height="6" />
		<rect x="186" y="78" width="6" height="6" />
		<rect x="6" y="84" width="6" height="6" />
		<rect x="12" y="84" width="6" height="6" />
		<rect x="24" y="84" width="6" height="6" />
		<rect x="30" y="84" width="6" height="6" />
		<rect x="36" y="84" width="6" height="6" />
		<rect x="60" y="84" width="6" height="6" />
		<rect x="66" y="84" width="6" height="6" />
		<rect x="72" y="84" width="6" height="6" />
		<rect x="84" y="84" width="6" height="6" />
		<rect x="90" y="84" width="6" height="6" />
		<rect x="102" y="84" width="6" height="6" />
		<rect x="114" y="84" width="6" height="6" />
		<rect x="120" y="84" width="6" height="6" />
		<rect x="144" y="84" width="6" height="6" />
		<rect x="162" y="84" width="6" height="6" />
		<rect x="168" y="84" width="6" height="6" />
		<rect x="180" y="84" width="6" height="6" />
		<rect x="18" y="90" width="6" height="6" />
		<rect x="24" y="90" width="6" height="6" />
		<rect x="60" y="90" width="6" height="6" />
		<rect x="66" y="90" width="6" height="6" />
		<rect x="78" y="90" width="6" height="6" />
		<rect x="84" y="90" width="6" height="6" />
		<rect x="90" y="90" width="6" height="6" />
		<rect x="102" y="90" width="6" height="6" />
		<rect x="126" y="90" width="6" height="6" />
		<rect x="138" y="90" width="6" height="6" />
		<rect x="144" y="90" width="6" height="6" />
		<rect x="162" y="90" width="6" height="6" />
		<rect x="180" y="90" width="6" height="6" />
		<rect x="12" y="96" width="6" height="6" />
		<rect x="18" y="96" width="6" height="6" />
		<rect x="30" y="96" width="6" height="6" />
		<rect x="36" y="96" width="6" height="6" />
		<rect x="72" y="96" width="6" height="6" />
		<rect x="96" y="96" width="6" height="6" />
		<rect x="120" y="96" width="6" height="6" />
		<rect x="138" y="96" width="6" height="6" />
		<rect x="144" y="96" width="6" height="6" />
		<rect x="156" y="96" width="6" height="6" />
		<rect x="168" y="96" width="6" height="6" />
		<rect x="174" y="96" width="6" height="6" />
		<rect x="192" y="96" width="6" height="6" />
		<rect x="0" y="102" width="6" height="6" />
		<rect x="18" y="102" width="6" height="6" />
		<rect x="42" y="102" width="6" height="6" />
		<rect x="54" y="102" width="6" height="6" />
		<rect x="66" y="102" width="6" height="6" />
		<rect x="72" y="102" width="6" height="6" />
		<rect x="78" y="102" width="6" height="6" />
		<rect x="90" y="102" width="6" height="6" />
		<rect x="96" y="102" width="6" height="6" />
		<rect x="102" y="102" width="6" height="6" />
		<rect x="108" y="102" width="6" height="6" />
		<rect x="132" y="102" width="6" height="6" />
		<rect x="144" y="102" width="6" height="6" />
		<rect x="150" y="102" width="6" height="6" />
		<rect x="168" y="102" width="6" height="6" />
		<rect x="174" y="102" width="6" height="6" />
		<rect x="186" y="102" width="6" height="6" />
		<rect x="192" y="102" width="6" height="6" />
		<rect x="0" y="108" width="6" height="6" />
		<rect x="12" y="108" width="6" height="6" />
		<rect x="30" y="108" width="6" height="6" />
		<rect x="36" y="108" width="6" height="6" />
		<rect x="42" y="108" width="6" height="6" />
		<rect x="54" y="108" width="6" height="6" />
		<rect x="60" y="108" width="6" height="6" />
		<rect x="78" y="108" width="6" height="6" />
		<rect x="84" y="108" width="6" height="6" />
		<rect x="96" y="108" width="6" height="6" />
		<rect x="102" y="108" width="6" height="6" />
		<rect x="144" y="108" width="6" height="6" />
		<rect x="168" y="108" width="6" height="6" />
		<rect x="180" y="108" width="6" height="6" />
		<rect x="0" y="114" width="6" height="6" />
		<rect x="6" y="114" width="6" height="6" />
		<rect x="12" y="114" width="6" height="6" />
		<rect x="18" y="114" width="6" height="6" />
		<rect x="24" y="114" width="6" height="6" />
		<rect x="30" y="114" width="6" height="6" />
		<rect x="42" y="114" width="6" height="6" />
		<rect x="66" y="114" width="6" height="6" />
		<rect x="78" y="114" width="6" height="6" />
		<rect x="84" y="114" width="6" height="6" />
		<rect x="102" y="114" width="6" height="6" />
		<rect x="108" y="114" width="6" height="6" />
		<rect x="120" y="114" width="6" height="6" />
		<rect x="126" y="114" width="6" height="6" />
		<rect x="132" y="114" width="6" height="6" />
		<rect x="144" y="114" width="6" height="6" />
		<rect x="156" y="114" width="6" height="6" />
		<rect x="174" y="114" width="6" height="6" />
		<rect x="192" y="114" width="6" height="6" />
		<rect x="0" y="120" width="6" height="6" />
		<rect x="12" y="120" width="6" height="6" />
		<rect x="18" y="120" width="6" height="6" />
		<rect x="24" y="120" width="6" height="6" />
		<rect x="36" y="120" width="6" height="6" />
		<rect x="42" y="120" width="6" height="6" />
		<rect x="48" y="120" width="6" height="6" />
		<rect x="72" y="120" width="6" height="6" />
		<rect x="78" y="120" width="6" height="6" />
		<rect x="108" y="120" width="6" height="6" />
		<rect x="114" y="120" width="6" height="6" />
		<rect x="132" y="120" width="6" height="6" />
		<rect x="144" y="120" width="6" height="6" />
		<rect x="150" y="120" width="6" height="6" />
		<rect x="156" y="120" width="6" height="6" />
		<rect x="162" y="120" width="6" height="6" />
		<rect x="168" y="120" width="6" height="6" />
		<rect x="180" y="120" width="6" height="6" />
		<rect x="186" y="120" width="6" height="6" />
		<rect x="0" y="126" width="6" height="6" />
		<rect x="24" y="126" width="6" height="6" />
		<rect x="30" y="126" width="6" height="6" />
		<rect x="42" y="126" width="6" height="6" />
		<rect x="54" y="126" width="6" height="6" />
		<rect x="66" y="126" width="6" height="6" />
		<rect x="78" y="126" width="6" height="6" />
		<rect x="84" y="126" width="6" height="6" />
		<rect x="90" y="126" width="6" height="6" />
		<rect x="96" y="126" width="6" height="6" />
		<rect x="102" y="126" width="6" height="6" />
		<rect x="108" y="126" width="6" height="6" />
		<rect x="120" y="126" width="6" height="6" />
		<rect x="126" y="126" width="6" height="6" />
		<rect x="180" y="126" width="6" height="6" />
		<rect x="186" y="126" width="6" height="6" />
		<rect x="192" y="126" width="6" height="6" />
		<rect x="18" y="132" width="6" height="6" />
		<rect x="24" y="132" width="6" height="6" />
		<rect x="36" y="132" width="6" height="6" />
		<rect x="42" y="132" width="6" height="6" />
		<rect x="48" y="132" width="6" height="6" />
		<rect x="54" y="132" width="6" height="6" />
		<rect x="90" y="132" width="6" height="6" />
		<rect x="108" y="132" width="6" height="6" />
		<rect x="114" y="132" width="6" height="6" />
		<rect x="120" y="132" width="6" height="6" />
		<rect x="126" y="132" width="6" height="6" />
		<rect x="138" y="132" width="6" height="6" />
		<rect x="168" y="132" width="6" height="6" />
		<rect x="174" y="132" width="6" height="6" />
		<rect x="192" y="132" width="6" height="6" />
		<rect x="6" y="138" width="6" height="6" />
		<rect x="12" y="138" width="6" height="6" />
		<rect x="18" y="138" width="6" height="6" />
		<rect x="24" y="138" width="6" height="6" />
		<rect x="54" y="138" width="6" height="6" />
		<rect x="60" y="138" width="6" height="6" />
		<rect x="72" y="138" width="6" height="6" />
		<rect x="78" y="138" width="6" height="6" />
		<rect x="102" y="138" width="6" height="6" />
		<rect x="108" y="138" width="6" height="6" />
		<rect x="120" y="138" width="6" height="6" />
		<rect x="132" y="138" width="6" height="6" />
		<rect x="144" y="138" width="6" height="6" />
		<rect x="150" y="138" width="6" height="6" />
		<rect x="192" y="138" width="6" height="6" />
		<rect x="0" y="144" width="6" height="6" />
		<rect x="18" y="144" width="6" height="6" />
		<rect x="30" y="144" width="6" height="6" />
		<rect x="36" y="144" width="6" height="6" />
		<rect x="48" y="144" width="6" height="6" />
		<rect x="54" y="144" width="6" height="6" />
		<rect x="60" y="144" width="6" height="6" />
		<rect x="66" y="144" width="6" height="6" />
		<rect x="108" y="144" width="6" height="6" />
		<rect x="114" y="144" width="6" height="6" />
		<rect x="120" y="144" width="6" height="6" />
		<rect x="132" y="144" width="6" height="6" />
		<rect x="144" y="144" width="6" height="6" />
		<rect x="150" y="144" width="6" height="6" />
		<rect x="156" y="144" width="6" height="6" />
		<rect x="162" y="144" width="6" height="6" />
		<rect x="168" y="144" width="6" height="6" />
		<rect x="180" y="144" width="6" height="6" />
		<rect x="48" y="150" width="6" height="6" />
		<rect x="54" y="150" width="6" height="6" />
		<rect x="60" y="150" width="6" height="6" />
		<rect x="72" y="150" width="6" height="6" />
		<rect x="84" y="150" width="6" height="6" />
		<rect x="90" y="150" width="6" height="6" />
		<rect x="102" y="150" width="6" height="6" />
		<rect x="108" y="150" width="6" height="6" />
		<rect x="120" y="150" width="6" height="6" />
		<rect x="138" y="150" width="6" height="6" />
		<rect x="144" y="150" width="6" height="6" />
		<rect x="168" y="150" width="6" height="6" />
		<rect x="174" y="150" width="6" height="6" />
		<rect x="186" y="150" width="6" height="6" />
		<rect x="192" y="150" width="6" height="6" />
		<rect x="0" y="156" width="6" height="6" />
		<rect x="6" y="156" width="6" height="6" />
		<rect x="12" y="156" width="6" height="6" />
		<rect x="18" y="156" width="6" height="6" />
		<rect x="24" y="156" width="6" height="6" />
		<rect x="30" y="156" width="6" height="6" />
		<rect x="36" y="156" width="6" height="6" />
		<rect x="66" y="156" width="6" height="6" />
		<rect x="72" y="156" width="6" height="6" />
		<rect x="84" y="156" width="6" height="6" />
		<rect x="102" y="156" width="6" height="6" />
		<rect x="114" y="156" width="6" height="6" />
		<rect x="126" y="156" width="6" height="6" />
		<rect x="132" y="156" width="6" height="6" />
		<rect x="144" y="156" width="6" height="6" />
		<rect x="156" y="156" width="6" height="6" />
		<rect x="168" y="156" width="6" height="6" />
		<rect x="186" y="156" width="6" height="6" />
		<rect x="0" y="162" width="6" height="6" />
		<rect x="36" y="162" width="6" height="6" />
		<rect x="48" y="162" width="6" height="6" />
		<rect x="54" y="162" width="6" height="6" />
		<rect x="66" y="162" width="6" height="6" />
		<rect x="84" y="162" width="6" height="6" />
		<rect x="108" y="162" width="6" height="6" />
		<rect x="114" y="162" width="6" height="6" />
		<rect x="120" y="162" width="6" height="6" />
		<rect x="126" y="162" width="6" height="6" />
		<rect x="132" y="162" width="6" height="6" />
		<rect x="144" y="162" width="6" height="6" />
		<rect x="168" y="162" width="6" height="6" />
		<rect x="180" y="162" width="6" height="6" />
		<rect x="192" y="162" width="6" height="6" />
		<rect x="0" y="168" width="6" height="6" />
		<rect x="12" y="168" width="6" height="6" />
		<rect x="18" y="168" width="6" height="6" />
		<rect x="24" y="168" width="6" height="6" />
		<rect x="36" y="168" width="6" height="6" />
		<rect x="60" y="168" width="6" height="6" />
		<rect x="66" y="168" width="6" height="6" />
		<rect x="78" y="168" width="6" height="6" />
		<rect x="84" y="168" width="6" height="6" />
		<rect x="96" y="168" width="6" height="6" />
		<rect x="102" y="168" width="6" height="6" />
		<rect x="120" y="168" width="6" height="6" />
		<rect x="144" y="168" width="6" height="6" />
		<rect x="150" y="168" width="6" height="6" />
		<rect x="156" y="168" width="6" height="6" />
		<rect x="162" y="168" width="6" height="6" />
		<rect x="168" y="168" width="6" height="6" />
		<rect x="174" y="168" width="6" height="6" />
		<rect x="180" y="168" width="6" height="6" />
		<rect x="186" y="168" width="6" height="6" />
		<rect x="0" y="174" width="6" height="6" />
		<rect x="12" y="174" width="6" height="6" />
		<rect x="18" y="174" width="6" height="6" />
		<rect x="24" y="174" width="6" height="6" />
		<rect x="36" y="174" width="6" height="6" />
		<rect x="48" y="174" width="6" height="6" />
		<rect x="60" y="174" width="6" height="6" />
		<rect x="84" y="174" width="6" height="6" />
		<rect x="102" y="174" width="6" height="6" />
		<rect x="108" y="174" width="6" height="6" />
		<rect x="114" y="174" width="6" height="6" />
		<rect x="132" y="174" width="6" height="6" />
		<rect x="144" y="174" width="6" height="6" />
		<rect x="150" y="174" width="6" height="6" />
		<rect x="186" y="174" width="6" height="6" />
		<rect x="0" y="180" width="6" height="6" />
		<rect x="12" y="180" width="6" height="6" />
		<rect x="18" y="180" width="6" height="6" />
		<rect x="24" y="180" width="6" height="6" />
		<rect x="36" y="180" width="6" height="6" />
		<rect x="48" y="180" width="6" height="6" />
		<rect x="54" y="180" width="6" height="6" />
		<rect x="60" y="180" width="6" height="6" />
		<rect x="78" y="180" width="6" height="6" />
		<rect x="84" y="180" width="6" height="6" />
		<rect x="90" y="180" width="6" height="6" />
		<rect x="138" y="180" width="6" height="6" />
		<rect x="144" y="180" width="6" height="6" />
		<rect x="150" y="180" width="6" height="6" />
		<rect x="162" y="180" width="6" height="6" />
		<rect x="168" y="180" width="6" height="6" />
		<rect x="0" y="186" width="6" height="6" />
		<rect x="36" y="186" width="6" height="6" />
		<rect x="48" y="186" width="6" height="6" />
		<rect x="60" y="186" width="6" height="6" />
		<rect x="66" y="186" width="6" height="6" />
		<rect x="78" y="186" width="6" height="6" />
		<rect x="84" y="186" width="6" height="6" />
		<rect x="108" y="186" width="6" height="6" />
		<rect x="120" y="186" width="6" height="6" />
		<rect x="150" y="186" width="6" height="6" />
		<rect x="156" y="186" width="6" height="6" />
		<rect x="168" y="186" width="6" height="6" />
		<rect x="180" y="186" width="6" height="6" />
		<rect x="192" y="186" width="6" height="6" />
		<rect x="0" y="192" width="6" height="6" />
		<rect x="6" y="192" width="6" height="6" />
		<rect x="12" y="192" width="6" height="6" />
		<rect x="18" y="192" width="6" height="6" />
		<rect x="24" y="192" width="6" height="6" />
		<rect x="30" y="192" width="6" height="6" />
		<rect x="36" y="192" width="6" height="6" />
		<rect x="60" y="192" width="6" height="6" />
		<rect x="72" y="192" width="6" height="6" />
		<rect x="102" y="192" width="6" height="6" />
		<rect x="108" y="192" width="6" height="6" />
		<rect x="114" y="192" width="6" height="6" />
		<rect x="126" y="192" width="6" height="6" />
		<rect x="150" y="192" width="6" height="6" />
		<rect x="156" y="192" width="6" height="6" />
		<rect x="168" y="192" width="6" height="6" />
		<rect x="180" y="192" width="6" height="6" />
	</g>
</svg>
