<?xml version="1.0" standalone="no"?>
<!DOCTYPE svg PUBLIC "-//W3C//DTD SVG 1.1//EN" "http://www.w3.org/Graphics/SVG/1.1/DTD/svg11.dtd">
<svg width="246" height="246" version="1.1" xmlns="http://www.w3.org/2000/svg">
	<desc>https://www.paypal.com/donate/?business=MU648LEZFXVGN&amp;currency_code=USD</desc>
	<g id="elements" fill="black" stroke="none">
		<rect x="0" y="0" width="6" height="6" />
		<rect x="6" y="0" width="6" height="6" />
		<rect x="12" y="0" width="6" height="6" />
		<rect x="18" y="0" width="6" height="6" />
		<rect x="24" y="0" width="6" height="6" />
		<rect x="30" y="0" width="6" height="6" />
		<rect x="36" y="0" width="6" height="6" />
		<rect x="54" y="0" width="6" height="6" />
		<rect x="90" y="0" width="6" height="6" />
		<rect x="108" y="0" width="6" height="6" />
		<rect x="114" y="0" width="6" height="6" />
		<rect x="120" y="0" width="6" height="6" />
		<rect x="126" y="0" width="6" height="6" />
		<rect x="144" y="0" width="6" height="6" />
		<rect x="150" y="0" width="6" height="6" />
		<rect x="156" y="0" width="6" height="6" />
		<rect x="162" y="0" width="6" height="6" />
		<rect x="168" y="0" width="6" height="6" />
		<rect x="174" y="0" width="6" height="6" />
		<rect x="180" y="0" width="6" height="6" />
		<rect x="186" y="0" width="6" height="6" />
		<rect x="204" y="0" width="6" height="6" />
		<rect x="210" y="0" width="6" height="6" />
		<rect x="216" y="0" width="6" height="6" />
		<rect x="222" y="0" width="6" height="6" />
		<rect x="228" y="0" width="6" height="6" />
		<rect x="234" y="0" width="6" height="6" />
		<rect x="240" y="0" width="6" height="6" />
		<rect x="0" y="6" width="6" height="6" />
		<rect x="36" y="6" width="6" height="6" />
		<rect x="48" y="6" width="6" height="6" />
		<rect x="54" y="6" width="6" height="6" />
		<rect x="60" y="6" width="6" height="6" />
		<rect x="72" y="6" width="6" height="6" />
		<rect x="90" y="6" width="6" height="6" />
		<rect x="96" y="6" width="6" height="6" />
		<rect x="120" y="6" width="6" height="6" />
		<rect x="144" y="6" width="6" height="6" />
		<rect x="156" y="6" width="6" height="6" />
		<rect x="174" y="6" width="6" height="6" />
		<rect x="180" y="6" width="6" height="6" />
		<rect x="186" y="6" width="6" height="6" />
		<rect x="204" y="6" width="6" height="6" />
		<rect x="240" y="6" width="6" height="6" />
		<rect x="0" y="12" width="6" height="6" />
		<rect x="12" y="12" width="6" height="6" />
		<rect x="18" y="12" width="6" height="6" />
		<rect x="24" y="12" width="6" height="6" />
		<rect x="36" y="12" width="6" height="6" />
		<rect x="60" y="12" width="6" height="6" />
		<rect x="72" y="12" width="6" height="6" />
		<rect x="84" y="12" width="6" height="6" />
		<rect x="102" y="12" width="6" height="6" />
		<rect x="108" y="12" width="6" height="6" />
		<rect x="114" y="12" width="6" height="6" />
		<rect x="120" y="12" width="6" height="6" />
		<rect x="132" y="12" width="6" height="6" />
		<rect x="144" y="12" width="6" height="6" />
		<rect x="150" y="12" width="6" height="6" />
		<rect x="168" y="12" width="6" height="6" />
		<rect x="180" y="12" width="6" height="6" />
		<rect x="186" y="12" width="6" height="6" />
		<rect x="192" y="12" width="6" height="6" />
		<rect x="204" y="12" width="6" height="6" />
		<rect x="216" y="12" width="6" height="6" />
		<rect x="222" y="12" width="6" height="6" />
		<rect x="228" y="12" width="6" height="6" />
		<rect x="240" y="12" width="6" height="6" />
		<rect x="0" y="18" width="6" height="6" />
		<rect x="12" y="18" width="6" height="6" />
		<rect x="18" y="18" width="6" height="6" />
		<rect x="24" y="18" width="6" height="6" />
		<rect x="36" y="18" width="6" height="6" />
		<rect x="48" y="18" width="6" height="6" />
		<rect x="60" y="18" width="6" height="6" />
		<rect x="66" y="18" width="6" height="6" />
		<rect x="84" y="18" width="6" height="6" />
		<rect x="102" y="18" width="6" height="6" />
		<rect x="120" y="18" width="6" height="6" />
		<rect x="132" y="18" width="6" height="6" />
		<rect x="156" y="18" width="6" height="6" />
		<rect x="162" y="18" width="6" height="6" />
		<rect x="174" y="18" width="6" height="6" />
		<rect x="180" y="18" width="6" height="6" />
		<rect x="204" y="18" width="6" height="6" />
		<rect x="216" y="18" width="6" height="6" />
		<rect x="222" y="18" width="6" height="6" />
		<rect x="228" y="18" width="6" height="6" />
		<rect x="240" y="18" width="6" height="6" />
		<rect x="0" y="24" width="6" height="6" />
		<rect x="12" y="24" width="6" height="6" />
		<rect x="18" y="24" width="6" height="6" />
		<rect x="24" y="24" width="6" height="6" />
		<rect x="36" y="24" width="6" height="6" />
		<rect x="48" y="24" width="6" height="6" />
		<rect x="54" y="24" width="6" height="6" />
		<rect x="84" y="24" width="6" height="6" />
		<rect x="96" y="24" width="6" height="6" />
		<rect x="102" y="24" width="6" height="6" />
		<rect x="114" y="24" width="6" height="6" />
		<rect x="120" y="24" width="6" height="6" />
		<rect x="132" y="24" width="6" height="6" />
		<rect x="138" y="24" width="6" height="6" />
		<rect x="156" y="24" width="6" height="6" />
		<rect x="168" y="24" width="6" height="6" />
		<rect x="174" y="24" width="6" height="6" />
		<rect x="186" y="24" width="6" height="6" />
		<rect x="204" y="24" width="6" height="6" />
		<rect x="216" y="24" width="6" height="6" />
		<rect x="222" y="24" width="6" height="6" />
		<rect x="228" y="24" width="6" height="6" />
		<rect x="240" y="24" width="6" height="6" />
		<rect x="0" y="30" width="6" height="6" />
		<rect x="36" y="30" width="6" height="6" />
		<rect x="60" y="30" width="6" height="6" />
		<rect x="72" y="30" width="6" height="6" />
		<rect x="84" y="30" width="6" height="6" />
		<rect x="96" y="30" width="6" height="6" />
		<rect x="102" y="30" width="6" height="6" />
		<rect x="108" y="30" width="6" height="6" />
		<rect x="114" y="30" width="6" height="6" />
		<rect x="132" y="30" width="6" height="6" />
		<rect x="144" y="30" width="6" height="6" />
		<rect x="168" y="30" width="6" height="6" />
		<rect x="192" y="30" width="6" height="6" />
		<rect x="204" y="30" width="6" height="6" />
		<rect x="240" y="30" width="6" height="6" />
		<rect x="0" y="36" width="6" height="6" />
		<rect x="6" y="36" width="6" height="6" />
		<rect x="12" y="36" width="6" height="6" />
		<rect x="18" y="36" width="6" height="6" />
		<rect x="24" y="36" width="6" height="6" />
		<rect x="30" y="36" width="6" height="6" />
		<rect x="36" y="36" width="6" height="6" />
		<rect x="48" y="36" width="6" height="6" />
		<rect x="60" y="36" width="6" height="6" />
		<rect x="72" y="36" width="6" height="6" />
		<rect x="84" y="36" width="6" height="6" />
		<rect x="96" y="36" width="6" height="6" />
		<rect x="108" y="36" width="6" height="6" />
		<rect x="120" y="36" width="6" height="6" />
		<rect x="132" y="36" width="6" height="6" />
		<rect x="144" y="36" width="6" height="6" />
		<rect x="156" y="36" width="6" height="6" />
		<rect x="168" y="36" width="6" height="6" />
		<rect x="180" y="36" width="6" height="6" />
		<rect x="192" y="36" width="6" height="6" />
		<rect x="204" y="36" width="6" height="6" />
		<rect x="210" y="36" width="6" height="6" />
		<rect x="216" y="36" width="6" height="6" />
		<rect x="222" y="36" width="6" height="6" />
		<rect x="228" y="36" width="6" height="6" />
		<rect x="234" y="36" width="6" height="6" />
		<rect x="240" y="36" width="6" height="6" />
		<rect x="48" y="42" width="6" height="6" />
		<rect x="66" y="42" width="6" height="6" />
		<rect x="72" y="42" width="6" height="6" />
		<rect x="78" y="42" width="6" height="6" />
		<rect x="84" y="42" width="6" height="6" />
		<rect x="90" y="42" width="6" height="6" />
		<rect x="102" y="42" width="6" height="6" />
		<rect x="114" y="42" width="6" height="6" />
		<rect x="150" y="42" width="6" height="6" />
		<rect x="162" y="42" width="6" height="6" />
		<rect x="186" y="42" width="6" height="6" />
		<rect x="192" y="42" width="6" height="6" />
		<rect x="6" y="48" width="6" height="6" />
		<rect x="18" y="48" width="6" height="6" />
		<rect x="24" y="48" width="6" height="6" />
		<rect x="30" y="48" width="6" height="6" />
		<rect x="36" y="48" width="6" height="6" />
		<rect x="48" y="48" width="6" height="6" />
		<rect x="60" y="48" width="6" height="6" />
		<rect x="66" y="48" width="6" height="6" />
		<rect x="72" y="48" width="6" height="6" />
		<rect x="96" y="48" width="6" height="6" />
		<rect x="108" y="48" width="6" height="6" />
		<rect x="114" y="48" width="6" height="6" />
		<rect x="132" y="48" width="6" height="6" />
		<rect x="138" y="48" width="6" height="6" />
		<rect x="144" y="48" width="6" height="6" />
		<rect x="156" y="48" width="6" height="6" />
		<rect x="162" y="48" width="6" height="6" />
		<rect x="168" y="48" width="6" height="6" />
		<rect x="174" y="48" width="6" height="6" />
		<rect x="186" y="48" width="6" height="6" />
		<rect x="192" y="48" width="6" height="6" />
		<rect x="198" y="48" width="6" height="6" />
		<rect x="204" y="48" width="6" height="6" />
		<rect x="216" y="48" width="6" height="6" />
		<rect x="222" y="48" width="6" height="6" />
		<rect x="234" y="48" width="6" height="6" />
		<rect x="6" y="54" width="6" height="6" />
		<rect x="18" y="54" width="6" height="6" />
		<rect x="42" y="54" width="6" height="6" />
		<rect x="54" y="54" width="6" height="6" />
		<rect x="60" y="54" width="6" height="6" />
		<rect x="72" y="54" width="6" height="6" />
		<rect x="108" y="54" width="6" height="6" />
		<rect x="126" y="54" width="6" height="6" />
		<rect x="144" y="54" width="6" height="6" />
		<rect x="162" y="54" width="6" height="6" />
		<rect x="186" y="54" width="6" height="6" />
		<rect x="198" y="54" width="6" height="6" />
		<rect x="210" y="54" width="6" height="6" />
		<rect x="234" y="54" width="6" height="6" />
		<rect x="0" y="60" width="6" height="6" />
		<rect x="6" y="60" width="6" height="6" />
		<rect x="12" y="60" width="6" height="6" />
		<rect x="18" y="60" width="6" height="6" />
		<rect x="24" y="60" width="6" height="6" />
		<rect x="36" y="60" width="6" height="6" />
		<rect x="72" y="60" width="6" height="6" />
		<rect x="84" y="60" width="6" height="6" />
		<rect x="90" y="60" width="6" height="6" />
		<rect x="108" y="60" width="6" height="6" />
		<rect x="114" y="60" width="6" height="6" />
		<rect x="126" y="60" width="6" height="6" />
		<rect x="138" y="60" width="6" height="6" />
		<rect x="162" y="60" width="6" height="6" />
		<rect x="174" y="60" width="6" height="6" />
		<rect x="204" y="60" width="6" height="6" />
		<rect x="228" y="60" width="6" height="6" />
		<rect x="234" y="60" width="6" height="6" />
		<rect x="6" y="66" width="6" height="6" />
		<rect x="18" y="66" width="6" height="6" />
		<rect x="48" y="66" width="6" height="6" />
		<rect x="60" y="66" width="6" height="6" />
		<rect x="90" y="66" width="6" height="6" />
		<rect x="96" y="66" width="6" height="6" />
		<rect x="102" y="66" width="6" height="6" />
		<rect x="126" y="66" width="6" height="6" />
		<rect x="132" y="66" width="6" height="6" />
		<rect x="156" y="66" width="6" height="6" />
		<rect x="168" y="66" width="6" height="6" />
		<rect x="174" y="66" width="6" height="6" />
		<rect x="180" y="66" width="6" height="6" />
		<rect x="186" y="66" width="6" height="6" />
		<rect x="192" y="66" width="6" height="6" />
		<rect x="204" y="66" width="6" height="6" />
		<rect x="210" y="66" width="6" height="6" />
		<rect x="222" y="66" width="6" height="6" />
		<rect x="234" y="66" width="6" height="6" />
		<rect x="240" y="66" width="6" height="6" />
		<rect x="6" y="72" width="6" height="6" />
		<rect x="30" y="72" width="6" height="6" />
		<rect x="36" y="72" width="6" height="6" />
		<rect x="48" y="72" width="6" height="6" />
		<rect x="60" y="72" width="6" height="6" />
		<rect x="66" y="72" width="6" height="6" />
		<rect x="72" y="72" width="6" height="6" />
		<rect x="78" y="72" width="6" height="6" />
		<rect x="96" y="72" width="6" height="6" />
		<rect x="108" y="72" width="6" height="6" />
		<rect x="114" y="72" width="6" height="6" />
		<rect x="120" y="72" width="6" height="6" />
		<rect x="126" y="72" width="6" height="6" />
		<rect x="144" y="72" width="6" height="6" />
		<rect x="162" y="72" width="6" height="6" />
		<rect x="168" y="72" width="6" height="6" />
		<rect x="198" y="72" width="6" height="6" />
		<rect x="210" y="72" width="6" height="6" />
		<rect x="234" y="72" width="6" height="6" />
		<rect x="0" y="78" width="6" height="6" />
		<rect x="6" y="78" width="6" height="6" />
		<rect x="30" y="78" width="6" height="6" />
		<rect x="42" y="78" width="6" height="6" />
		<rect x="48" y="78" width="6" height="6" />
		<rect x="54" y="78" width="6" height="6" />
		<rect x="66" y="78" width="6" height="6" />
		<rect x="90" y="78" width="6" height="6" />
		<rect x="114" y="78" width="6" height="6" />
		<rect x="120" y="78" width="6" height="6" />
		<rect x="126" y="78" width="6" height="6" />
		<rect x="132" y="78" width="6" height="6" />
		<rect x="162" y="78" width="6" height="6" />
		<rect x="174" y="78" width="6" height="6" />
		<rect x="180" y="78" width="6" height="6" />
		<rect x="192" y="78" width="6" height="6" />
		<rect x="204" y="78" width="6" height="6" />
		<rect x="210" y="78" width="6" height="6" />
		<rect x="216" y="78" width="6" height="6" />
		<rect x="222" y="78" width="6" height="6" />
		<rect x="228" y="78" width="6" height="6" />
		<rect x="234" y="78" width="6" height="6" />
		<rect x="240" y="78" width="6" height="6" />
		<rect x="0" y="84" width="6" height="6" />
		<rect x="24" y="84" width="6" height="6" />
		<rect x="30" y="84" width="6" height="6" />
		<rect x="36" y="84" width="6" height="6" />
		<rect x="60" y="84" width="6" height="6" />
		<rect x="72" y="84" width="6" height="6" />
		<rect x="84" y="84" width="6" height="6" />
		<rect x="90" y="84" width="6" height="6" />
		<rect x="102" y="84" width="6" height="6" />
		<rect x="108" y="84" width="6" height="6" />
		<rect x="114" y="84" width="6" height="6" />
		<rect x="132" y="84" width="6" height="6" />
		<rect x="138" y="84" width="6" height="6" />
		<rect x="144" y="84" width="6" height="6" />
		<rect x="150" y="84" width="6" height="6" />
		<rect x="192" y="84" width="6" height="6" />
		<rect x="198" y="84" width="6" height="6" />
		<rect x="204" y="84" width="6" height="6" />
		<rect x="210" y="84" width="6" height="6" />
		<rect x="228" y="84" width="6" height="6" />
		<rect x="240" y="84" width="6" height="6" />
		<rect x="6" y="90" width="6" height="6" />
		<rect x="12" y="90" width="6" height="6" />
		<rect x="24" y="90" width="6" height="6" />
		<rect x="48" y="90" width="6" height="6" />
		<rect x="54" y="90" width="6" height="6" />
		<rect x="60" y="90" width="6" height="6" />
		<rect x="72" y="90" width="6" height="6" />
		<rect x="108" y="90" width="6" height="6" />
		<rect x="132" y="90" width="6" height="6" />
		<rect x="138" y="90" width="6" height="6" />
		<rect x="168" y="90" width="6" height="6" />
		<rect x="174" y="90" width="6" height="6" />
		<rect x="180" y="90" width="6" height="6" />
		<rect x="186" y="90" width="6" height="6" />
		<rect x="198" y="90" width="6" height="6" />
		<rect x="210" y="90" width="6" height="6" />
		<rect x="222" y="90" width="6" height="6" />
		<rect x="228" y="90" width="6" height="6" />
		<rect x="234" y="90" width="6" height="6" />
		<rect x="0" y="96" width="6" height="6" />
		<rect x="12" y="96" width="6" height="6" />
		<rect x="30" y="96" width="6" height="6" />
		<rect x="36" y="96" width="6" height="6" />
		<rect x="54" y="96" width="6" height="6" />
		<rect x="60" y="96" width="6" height="6" />
		<rect x="72" y="96" width="6" height="6" />
		<rect x="78" y="96" width="6" height="6" />
		<rect x="90" y="96" width="6" height="6" />
		<rect x="102" y="96" width="6" height="6" />
		<rect x="114" y="96" width="6" height="6" />
		<rect x="132" y="96" width="6" height="6" />
		<rect x="156" y="96" width="6" height="6" />
		<rect x="168" y="96" width="6" height="6" />
		<rect x="180" y="96" width="6" height="6" />
		<rect x="198" y="96" width="6" height="6" />
		<rect x="234" y="96" width="6" height="6" />
		<rect x="0" y="102" width="6" height="6" />
		<rect x="18" y="102" width="6" height="6" />
		<rect x="30" y="102" width="6" height="6" />
		<rect x="54" y="102" width="6" height="6" />
		<rect x="84" y="102" width="6" height="6" />
		<rect x="96" y="102" width="6" height="6" />
		<rect x="108" y="102" width="6" height="6" />
		<rect x="132" y="102" width="6" height="6" />
		<rect x="144" y="102" width="6" height="6" />
		<rect x="156" y="102" width="6" height="6" />
		<rect x="162" y="102" width="6" height="6" />
		<rect x="168" y="102" width="6" height="6" />
		<rect x="174" y="102" width="6" height="6" />
		<rect x="180" y="102" width="6" height="6" />
		<rect x="186" y="102" width="6" height="6" />
		<rect x="192" y="102" width="6" height="6" />
		<rect x="198" y="102" width="6" height="6" />
		<rect x="216" y="102" width="6" height="6" />
		<rect x="6" y="108" width="6" height="6" />
		<rect x="12" y="108" width="6" height="6" />
		<rect x="24" y="108" width="6" height="6" />
		<rect x="36" y="108" width="6" height="6" />
		<rect x="42" y="108" width="6" height="6" />
		<rect x="48" y="108" width="6" height="6" />
		<rect x="54" y="108" width="6" height="6" />
		<rect x="60" y="108" width="6" height="6" />
		<rect x="72" y="108" width="6" height="6" />
		<rect x="78" y="108" width="6" height="6" />
		<rect x="84" y="108" width="6" height="6" />
		<rect x="96" y="108" width="6" height="6" />
		<rect x="102" y="108" width="6" height="6" />
		<rect x="114" y="108" width="6" height="6" />
		<rect x="132" y="108" width="6" height="6" />
		<rect x="144" y="108" width="6" height="6" />
		<rect x="150" y="108" width="6" height="6" />
		<rect x="156" y="108" width="6" height="6" />
		<rect x="168" y="108" width="6" height="6" />
		<rect x="180" y="108" width="6" height="6" />
		<rect x="204" y="108" width="6" height="6" />
		<rect x="210" y="108" width="6" height="6" />
		<rect x="216" y="108" width="6" height="6" />
		<rect x="240" y="108" width="6" height="6" />
		<rect x="6" y="114" width="6" height="6" />
		<rect x="42" y="114" width="6" height="6" />
		<rect x="60" y="114" width="6" height="6" />
		<rect x="72" y="114" width="6" height="6" />
		<rect x="114" y="114" width="6" height="6" />
		<rect x="126" y="114" width="6" height="6" />
		<rect x="138" y="114" width="6" height="6" />
		<rect x="144" y="114" width="6" height="6" />
		<rect x="150" y="114" width="6" height="6" />
		<rect x="156" y="114" width="6" height="6" />
		<rect x="162" y="114" width="6" height="6" />
		<rect x="168" y="114" width="6" height="6" />
		<rect x="174" y="114" width="6" height="6" />
		<rect x="180" y="114" width="6" height="6" />
		<rect x="186" y="114" width="6" height="6" />
		<rect x="216" y="114" width="6" height="6" />
		<rect x="222" y="114" width="6" height="6" />
		<rect x="228" y="114" width="6" height="6" />
		<rect x="240" y="114" width="6" height="6" />
		<rect x="0" y="120" width="6" height="6" />
		<rect x="18" y="120" width="6" height="6" />
		<rect x="36" y="120" width="6" height="6" />
		<rect x="60" y="120" width="6" height="6" />
		<rect x="66" y="120" width="6" height="6" />
		<rect x="96" y="120" width="6" height="6" />
		<rect x="120" y="120" width="6" height="6" />
		<rect x="126" y="120" width="6" height="6" />
		<rect x="132" y="120" width="6" height="6" />
		<rect x="138" y="120" width="6" height="6" />
		<rect x="144" y="120" width="6" height="6" />
		<rect x="150" y="120" width="6" height="6" />
		<rect x="162" y="120" width="6" height="6" />
		<rect x="168" y="120" width="6" height="6" />
		<rect x="180" y="120" width="6" height="6" />
		<rect x="186" y="120" width="6" height="6" />
		<rect x="204" y="120" width="6" height="6" />
		<rect x="210" y="120" width="6" height="6" />
		<rect x="228" y="120" width="6" height="6" />
		<rect x="0" y="126" width="6" height="6" />
		<rect x="12" y="126" width="6" height="6" />
		<rect x="18" y="126" width="6" height="6" />
		<rect x="54" y="126" width="6" height="6" />
		<rect x="60" y="126" width="6" height="6" />
		<rect x="78" y="126" width="6" height="6" />
		<rect x="90" y="126" width="6" height="6" />
		<rect x="102" y="126" width="6" height="6" />
		<rect x="108" y="126" width="6" height="6" />
		<rect x="132" y="126" width="6" height="6" />
		<rect x="138" y="126" width="6" height="6" />
		<rect x="150" y="126" width="6" height="6" />
		<rect x="156" y="126" width="6" height="6" />
		<rect x="162" y="126" width="6" height="6" />
		<rect x="186" y="126" width="6" height="6" />
		<rect x="228" y="126" width="6" height="6" />
		<rect x="0" y="132" width="6" height="6" />
		<rect x="12" y="132" width="6" height="6" />
		<rect x="24" y="132" width="6" height="6" />
		<rect x="36" y="132" width="6" height="6" />
		<rect x="42" y="132" width="6" height="6" />
		<rect x="48" y="132" width="6" height="6" />
		<rect x="66" y="132" width="6" height="6" />
		<rect x="78" y="132" width="6" height="6" />
		<rect x="90" y="132" width="6" height="6" />
		<rect x="96" y="132" width="6" height="6" />
		<rect x="108" y="132" width="6" height="6" />
		<rect x="126" y="132" width="6" height="6" />
		<rect x="138" y="132" width="6" height="6" />
		<rect x="144" y="132" width="6" height="6" />
		<rect x="156" y="132" width="6" height="6" />
		<rect x="162" y="132" width="6" height="6" />
		<rect x="168" y="132" width="6" height="6" />
		<rect x="192" y="132" width="6" height="6" />
		<rect x="204" y="132" width="6" height="6" />
		<rect x="216" y="132" width="6" height="6" />
		<rect x="12" y="138" width="6" height="6" />
		<rect x="18" y="138" width="6" height="6" />
		<rect x="24" y="138" width="6" height="6" />
		<rect x="30" y="138" width="6" height="6" />
		<rect x="42" y="138" width="6" height="6" />
		<rect x="48" y="138" width="6" height="6" />
		<rect x="72" y="138" width="6" height="6" />
		<rect x="96" y="138" width="6" height="6" />
		<rect x="108" y="138" width="6" height="6" />
		<rect x="114" y="138" width="6" height="6" />
		<rect x="126" y="138" width="6" height="6" />
		<rect x="132" y="138" width="6" height="6" />
		<rect x="156" y="138" width="6" height="6" />
		<rect x="162" y="138" width="6" height="6" />
		<rect x="174" y="138" width="6" height="6" />
		<rect x="186" y="138" width="6" height="6" />
		<rect x="192" y="138" width="6" height="6" />
		<rect x="204" y="138" width="6" height="6" />
		<rect x="210" y="138" width="6" height="6" />
		<rect x="216" y="138" width="6" height="6" />
		<rect x="228" y="138" width="6" height="6" />
		<rect x="240" y="138" width="6" height="6" />
		<rect x="6" y="144" width="6" height="6" />
		<rect x="18" y="144" width="6" height="6" />
		<rect x="24" y="144" width="6" height="6" />
		<rect x="36" y="144" width="6" height="6" />
		<rect x="48" y="144" width="6" height="6" />
		<rect x="54" y="144" width="6" height="6" />
		<rect x="60" y="144" width="6" height="6" />
		<rect x="66" y="144" width="6" height="6" />
		<rect x="84" y="144" width="6" height="6" />
		<rect x="96" y="144" width="6" height="6" />
		<rect x="114" y="144" width="6" height="6" />
		<rect x="144" y="144" width="6" height="6" />
		<rect x="192" y="144" width="6" height="6" />
		<rect x="198" y="144" width="6" height="6" />
		<rect x="204" y="144" width="6" height="6" />
		<rect x="210" y="144" width="6" height="6" />
		<rect x="234" y="144" width="6" height="6" />
		<rect x="0" y="150" width="6" height="6" />
		<rect x="18" y="150" width="6" height="6" />
		<rect x="24" y="150" width="6" height="6" />
		<rect x="30" y="150" width="6" height="6" />
		<rect x="42" y="150" width="6" height="6" />
		<rect x="48" y="150" width="6" height="6" />
		<rect x="66" y="150" width="6" height="6" />
		<rect x="84" y="150" width="6" height="6" />
		<rect x="90" y="150" width="6" height="6" />
		<rect x="96" y="150" width="6" height="6" />
		<rect x="108" y="150" width="6" height="6" />
		<rect x="120" y="150" width="6" height="6" />
		<rect x="126" y="150" width="6" height="6" />
		<rect x="132" y="150" width="6" height="6" />
		<rect x="138" y="150" width="6" height="6" />
		<rect x="150" y="150" width="6" height="6" />
		<rect x="162" y="150" width="6" height="6" />
		<rect x="168" y="150" width="6" height="6" />
		<rect x="192" y="150" width="6" height="6" />
		<rect x="204" y="150" width="6" height="6" />
		<rect x="210" y="150" width="6" height="6" />
		<rect x="216" y="150" width="6" height="6" />
		<rect x="228" y="150" width="6" height="6" />
		<rect x="234" y="150" width="6" height="6" />
		<rect x="240" y="150" width="6" height="6" />
		<rect x="0" y="156" width="6" height="6" />
		<rect x="12" y="156" width="6" height="6" />
		<rect x="30" y="156" width="6" height="6" />
		<rect x="36" y="156" width="6" height="6" />
		<rect x="42" y="156" width="6" height="6" />
		<rect x="66" y="156" width="6" height="6" />
		<rect x="78" y="156" width="6" height="6" />
		<rect x="84" y="156" width="6" height="6" />
		<rect x="96" y="156" width="6" height="6" />
		<rect x="102" y="156" width="6" height="6" />
		<rect x="108" y="156" width="6" height="6" />
		<rect x="126" y="156" width="6" height="6" />
		<rect x="132" y="156" width="6" height="6" />
		<rect x="162" y="156" width="6" height="6" />
		<rect x="168" y="156" width="6" height="6" />
		<rect x="186" y="156" width="6" height="6" />
		<rect x="192" y="156" width="6" height="6" />
		<rect x="216" y="156" width="6" height="6" />
		<rect x="222" y="156" width="6" height="6" />
		<rect x="234" y="156" width="6" height="6" />
		<rect x="240" y="156" width="6" height="6" />
		<rect x="6" y="162" width="6" height="6" />
		<rect x="24" y="162" width="6" height="6" />
		<rect x="42" y="162" width="6" height="6" />
		<rect x="54" y="162" width="6" height="6" />
		<rect x="60" y="162" width="6" height="6" />
		<rect x="66" y="162" width="6" height="6" />
		<rect x="72" y="162" width="6" height="6" />
		<rect x="90" y="162" width="6" height="6" />
		<rect x="102" y="162" width="6" height="6" />
		<rect x="114" y="162" width="6" height="6" />
		<rect x="144" y="162" width="6" height="6" />
		<rect x="162" y="162" width="6" height="6" />
		<rect x="186" y="162" width="6" height="6" />
		<rect x="198" y="162" width="6" height="6" />
		<rect x="216" y="162" width="6" height="6" />
		<rect x="222" y="162" width="6" height="6" />
		<rect x="228" y="162" width="6" height="6" />
		<rect x="234" y="162" width="6" height="6" />
		<rect x="240" y="162" width="6" height="6" />
		<rect x="0" y="168" width="6" height="6" />
		<rect x="6" y="168" width="6" height="6" />
		<rect x="12" y="168" width="6" height="6" />
		<rect x="18" y="168" width="6" height="6" />
		<rect x="24" y="168" width="6" height="6" />
		<rect x="30" y="168" width="6" height="6" />
		<rect x="36" y="168" width="6" height="6" />
		<rect x="54" y="168" width="6" height="6" />
		<rect x="84" y="168" width="6" height="6" />
		<rect x="102" y="168" width="6" height="6" />
		<rect x="126" y="168" width="6" height="6" />
		<rect x="132" y="168" width="6" height="6" />
		<rect x="138" y="168" width="6" height="6" />
		<rect x="150" y="168" width="6" height="6" />
		<rect x="180" y="168" width="6" height="6" />
		<rect x="186" y="168" width="6" height="6" />
		<rect x="198" y="168" width="6" height="6" />
		<rect x="204" y="168" width="6" height="6" />
		<rect x="210" y="168" width="6" height="6" />
		<rect x="222" y="168" width="6" height="6" />
		<rect x="234" y="168" width="6" height="6" />
		<rect x="240" y="168" width="6" height="6" />
		<rect x="0" y="174" width="6" height="6" />
		<rect x="6" y="174" width="6" height="6" />
		<rect x="12" y="174" width="6" height="6" />
		<rect x="24" y="174" width="6" height="6" />
		<rect x="48" y="174" width="6" height="6" />
		<rect x="60" y="174" width="6" height="6" />
		<rect x="72" y="174" width="6" height="6" />
		<rect x="78" y="174" width="6" height="6" />
		<rect x="108" y="174" width="6" height="6" />
		<rect x="114" y="174" width="6" height="6" />
		<rect x="120" y="174" width="6" height="6" />
		<rect x="132" y="174" width="6" height="6" />
		<rect x="138" y="174" width="6" height="6" />
		<rect x="144" y="174" width="6" height="6" />
		<rect x="162" y="174" width="6" height="6" />
		<rect x="168" y="174" width="6" height="6" />
		<rect x="180" y="174" width="6" height="6" />
		<rect x="186" y="174" width="6" height="6" />
		<rect x="198" y="174" width="6" height="6" />
		<rect x="210" y="174" width="6" height="6" />
		<rect x="216" y="174" width="6" height="6" />
		<rect x="222" y="174" width="6" height="6" />
		<rect x="228" y="174" width="6" height="6" />
		<rect x="234" y="174" width="6" height="6" />
		<rect x="0" y="180" width="6" height="6" />
		<rect x="6" y="180" width="6" height="6" />
		<rect x="12" y="180" width="6" height="6" />
		<rect x="36" y="180" width="6" height="6" />
		<rect x="42" y="180" width="6" height="6" />
		<rect x="54" y="180" width="6" height="6" />
		<rect x="66" y="180" width="6" height="6" />
		<rect x="78" y="180" width="6" height="6" />
		<rect x="102" y="180" width="6" height="6" />
		<rect x="108" y="180" width="6" height="6" />
		<rect x="114" y="180" width="6" height="6" />
		<rect x="120" y="180" width="6" height="6" />
		<rect x="132" y="180" width="6" height="6" />
		<rect x="138" y="180" width="6" height="6" />
		<rect x="156" y="180" width="6" height="6" />
		<rect x="168" y="180" width="6" height="6" />
		<rect x="174" y="180" width="6" height="6" />
		<rect x="198" y="180" width="6" height="6" />
		<rect x="216" y="180" width="6" height="6" />
		<rect x="240" y="180" width="6" height="6" />
		<rect x="0" y="186" width="6" height="6" />
		<rect x="6" y="186" width="6" height="6" />
		<rect x="18" y="186" width="6" height="6" />
		<rect x="54" y="186" width="6" height="6" />
		<rect x="66" y="186" width="6" height="6" />
		<rect x="72" y="186" width="6" height="6" />
		<rect x="84" y="186" width="6" height="6" />
		<rect x="114" y="186" width="6" height="6" />
		<rect x="144" y="186" width="6" height="6" />
		<rect x="150" y="186" width="6" height="6" />
		<rect x="162" y="186" width="6" height="6" />
		<rect x="180" y="186" width="6" height="6" />
		<rect x="186" y="186" width="6" height="6" />
		<rect x="192" y="186" width="6" height="6" />
		<rect x="204" y="186" width="6" height="6" />
		<rect x="210" y="186" width="6" height="6" />
		<rect x="228" y="186" width="6" height="6" />
		<rect x="234" y="186" width="6" height="6" />
		<rect x="0" y="192" width="6" height="6" />
		<rect x="6" y="192" width="6" height="6" />
		<rect x="18" y="192" width="6" height="6" />
		<rect x="24" y="192" width="6" height="6" />
		<rect x="30" y="192" width="6" height="6" />
		<rect x="36" y="192" width="6" height="6" />
		<rect x="42" y="192" width="6" height="6" />
		<rect x="54" y="192" width="6" height="6" />
		<rect x="60" y="192" width="6" height="6" />
		<rect x="90" y="192" width="6" height="6" />
		<rect x="114" y="192" width="6" height="6" />
		<rect x="126" y="192" width="6" height="6" />
		<rect x="132" y="192" width="6" height="6" />
		<rect x="168" y="192" width="6" height="6" />
		<rect x="186" y="192" width="6" height="6" />
		<rect x="192" y="192" width="6" height="6" />
		<rect x="198" y="192" width="6" height="6" />
		<rect x="204" y="192" width="6" height="6" />
		<rect x="210" y="192" width="6" height="6" />
		<rect x="216" y="192" width="6" height="6" />
		<rect x="222" y="192" width="6" height="6" />
		<rect x="228" y="192" width="6" height="6" />
		<rect x="240" y="192" width="6" height="6" />
		<rect x="48" y="198" width="6" height="6" />
		<rect x="54" y="198" width="6" height="6" />
		<rect x="60" y="198" width="6" height="6" />
		<rect x="66" y="198" width="6" height="6" />
		<rect x="78" y="198" width="6" height="6" />
		<rect x="84" y="198" width="6" height="6" />
		<rect x="90" y="198" width="6" height="6" />
		<rect x="96" y="198" width="6" height="6" />
		<rect x="102" y="198" width="6" height="6" />
		<rect x="108" y="198" width="6" height="6" />
		<rect x="114" y="198" width="6" height="6" />
		<rect x="126" y="198" width="6" height="6" />
		<rect x="138" y="198" width="6" height="6" />
		<rect x="144" y="198" width="6" height="6" />
		<rect x="150" y="198" width="6" height="6" />
		<rect x="168" y="198" width="6" height="6" />
		<rect x="174" y="198" width="6" height="6" />
		<rect x="180" y="198" width="6" height="6" />
		<rect x="192" y="198" width="6" height="6" />
		<rect x="216" y="198" width="6" height="6" />
		<rect x="222" y="198" width="6" height="6" />
		<rect x="0" y="204" width="6" height="6" />
		<rect x="6" y="204" width="6" height="6" />
		<rect x="12" y="204" width="6" height="6" />
		<rect x="18" y="204" width="6" height="6" />
		<rect x="24" y="204" width="6" height="6" />
		<rect x="30" y="204" width="6" height="6" />
		<rect x="36" y="204" width="6" height="6" />
		<rect x="84" y="204" width="6" height="6" />
		<rect x="96" y="204" width="6" height="6" />
		<rect x="108" y="204" width="6" height="6" />
		<rect x="114" y="204" width="6" height="6" />
		<rect x="150" y="204" width="6" height="6" />
		<rect x="162" y="204" width="6" height="6" />
		<rect x="168" y="204" width="6" height="6" />
		<rect x="192" y="204" width="6" height="6" />
		<rect x="204" y="204" width="6" height="6" />
		<rect x="216" y="204" width="6" height="6" />
		<rect x="222" y="204" width="6" height="6" />
		<rect x="228" y="204" width="6" height="6" />
		<rect x="234" y="204" width="6" height="6" />
		<rect x="0" y="210" width="6" height="6" />
		<rect x="36" y="210" width="6" height="6" />
		<rect x="48" y="210" width="6" height="6" />
		<rect x="54" y="210" width="6" height="6" />
		<rect x="66" y="210" width="6" height="6" />
		<rect x="72" y="210" width="6" height="6" />
		<rect x="90" y="210" width="6" height="6" />
		<rect x="96" y="210" width="6" height="6" />
		<rect x="102" y="210" width="6" height="6" />
		<rect x="108" y="210" width="6" height="6" />
		<rect x="114" y="210" width="6" height="6" />
		<rect x="138" y="210" width="6" height="6" />
		<rect x="144" y="210" width="6" height="6" />
		<rect x="150" y="210" width="6" height="6" />
		<rect x="162" y="210" width="6" height="6" />
		<rect x="168" y="210" width="6" height="6" />
		<rect x="180" y="210" width="6" height="6" />
		<rect x="186" y="210" width="6" height="6" />
		<rect x="192" y="210" width="6" height="6" />
		<rect x="216" y="210" width="6" height="6" />
		<rect x="240" y="210" width="6" height="6" />
		<rect x="0" y="216" width="6" height="6" />
		<rect x="12" y="216" width="6" height="6" />
		<rect x="18" y="216" width="6" height="6" />
		<rect x="24" y="216" width="6" height="6" />
		<rect x="36" y="216" width="6" height="6" />
		<rect x="48" y="216" width="6" height="6" />
		<rect x="72" y="216" width="6" height="6" />
		<rect x="78" y="216" width="6" height="6" />
		<rect x="102" y="216" width="6" height="6" />
		<rect x="108" y="216" width="6" height="6" />
		<rect x="126" y="216" width="6" height="6" />
		<rect x="132" y="216" width="6" height="6" />
		<rect x="138" y="216" width="6" height="6" />
		<rect x="144" y="216" width="6" height="6" />
		<rect x="150" y="216" width="6" height="6" />
		<rect x="180" y="216" width="6" height="6" />
		<rect x="186" y="216" width="6" height="6" />
		<rect x="192" y="216" width="6" height="6" />
		<rect x="198" y="216" width="6" height="6" />
		<rect x="204" y="216" width="6" height="6" />
		<rect x="210" y="216" width="6" height="6" />
		<rect x="216" y="216" width="6" height="6" />
		<rect x="222" y="216" width="6" height="6" />
		<rect x="0" y="222" width="6" height="6" />
		<rect x="12" y="222" width="6" height="6" />
		<rect x="18" y="222" width="6" height="6" />
		<rect x="24" y="222" width="6" height="6" />
		<rect x="36" y="222" width="6" height="6" />
		<rect x="48" y="222" width="6" height="6" />
		<rect x="54" y="222" width="6" height="6" />
		<rect x="60" y="222" width="6" height="6" />
		<rect x="66" y="222" width="6" height="6" />
		<rect x="78" y="222" width="6" height="6" />
		<rect x="84" y="222" width="6" height="6" />
		<rect x="120" y="222" width="6" height="6" />
		<rect x="126" y="222" width="6" height="6" />
		<rect x="132" y="222" width="6" height="6" />
		<rect x="138" y="222" width="6" height="6" />
		<rect x="150" y="222" width="6" height="6" />
		<rect x="156" y="222" width="6" height="6" />
		<rect x="162" y="222" width="6" height="6" />
		<rect x="180" y="222" width="6" height="6" />
		<rect x="186" y="222" width="6" height="6" />
		<rect x="210" y="222" width="6" height="6" />
		<rect x="228" y="222" width="6" height="6" />
		<rect x="240" y="222" width="6" height="6" />
		<rect x="0" y="228" width="6" height="6" />
		<rect x="12" y="228" width="6" height="6" />
		<rect x="18" y="228" width="6" height="6" />
		<rect x="24" y="228" width="6" height="6" />
		<rect x="36" y="228" width="6" height="6" />
		<rect x="60" y="228" width="6" height="6" />
		<rect x="78" y="228" width="6" height="6" />
		<rect x="90" y="228" width="6" height="6" />
		<rect x="96" y="228" width="6" height="6" />
		<rect x="102" y="228" width="6" height="6" />
		<rect x="108" y="228" width="6" height="6" />
		<rect x="114" y="228" width="6" height="6" />
		<rect x="120" y="228" width="6" height="6" />
		<rect x="150" y="228" width="6" height="6" />
		<rect x="162" y="228" width="6" height="6" />
		<rect x="174" y="228" width="6" height="6" />
		<rect x="186" y="228" width="6" height="6" />
		<rect x="198" y="228" width="6" height="6" />
		<rect x="210" y="228" width="6" height="6" />
		<rect x="216" y="228" width="6" height="6" />
		<rect x="228" y="228" width="6" height="6" />
		<rect x="234" y="228" width="6" height="6" />
		<rect x="240" y="228" width="6" height="6" />
		<rect x="0" y="234" width="6" height="6" />
		<rect x="36" y="234" width="6" height="6" />
		<rect x="48" y="234" width="6" height="6" />
		<rect x="54" y="234" width="6" height="6" />
		<rect x="72" y="234" width="6" height="6" />
		<rect x="84" y="234" width="6" height="6" />
		<rect x="90" y="234" width="6" height="6" />
		<rect x="114" y="234" width="6" height="6" />
		<rect x="120" y="234" width="6" height="6" />
		<rect x="132" y="234" width="6" height="6" />
		<rect x="144" y="234" width="6" height="6" />
		<rect x="156" y="234" width="6" height="6" />
		<rect x="162" y="234" width="6" height="6" />
		<rect x="198" y="234" width="6" height="6" />
		<rect x="216" y="234" width="6" height="6" />
		<rect x="228" y="234" width="6" height="6" />
		<rect x="240" y="234" width="6" height="6" />
		<rect x="0" y="240" width="6" height="6" />
		<rect x="6" y="240" width="6" height="6" />
		<rect x="12" y="240" width="6" height="6" />
		<rect x="18" y="240" width="6" height="6" />
		<rect x="24" y="240" width="6" height="6" />
		<rect x="30" y="240" width="6" height="6" />
		<rect x="36" y="240" width="6" height="6" />
		<rect x="60" y="240" width="6" height="6" />
		<rect x="66" y="240" width="6" height="6" />
		<rect x="72" y="240" width="6" height="6" />
		<rect x="84" y="240" width="6" height="6" />
		<rect x="90" y="240" width="6" height="6" />
		<rect x="108" y="240" width="6" height="6" />
		<rect x="120" y="240" width="6" height="6" />
		<rect x="126" y="240" width="6" height="6" />
		<rect x="132" y="240" width="6" height="6" />
		<rect x="144" y="240" width="6" height="6" />
		<rect x="150" y="240" width="6" height="6" />
		<rect x="180" y="240" width="6" height="6" />
		<rect x="186" y="240" width="6" height="6" />
		<rect x="192" y="240" width="6" height="6" />
		<rect x="204" y="240" width="6" height="6" />
		<rect x="216" y="240" width="6" height="6" />
		<rect x="222" y="240" width="6" height="6" />
	</g>
</svg>
